<?xml version="1.0" standalone="no"?>
<!DOCTYPE svg PUBLIC "-//W3C//DTD SVG 1.1//EN" "http://www.w3.org/Graphics/SVG/1.1/DTD/svg11.dtd" >
<svg xmlns="http://www.w3.org/2000/svg" xmlns:xlink="http://www.w3.org/1999/xlink" version="1.1">
<metadata>
Created by FontForge 20230101 at Sat Mar 28 02:03:54 2020
 By Unknown
Copyright (c)2016, Radnika designed by Alfredo Marco Pradil (ammpradil@gmail.com).
</metadata>
<defs>
<font id="Radnika-BoldItalic" horiz-adv-x="547" >
  <font-face 
    font-family="Radnika"
    font-weight="700"
    font-style="italic"
    font-stretch="normal"
    units-per-em="1000"
    panose-1="0 0 8 0 0 0 0 0 0 0"
    ascent="690"
    descent="-310"
    x-height="512"
    cap-height="690"
    bbox="-779 -244 1141 1045"
    underline-thickness="40"
    underline-position="-100"
    slope="-12"
    unicode-range="U+0020-FB02"
  />
<missing-glyph horiz-adv-x="500" 
d="M50 0v488h400v-488h-400zM100 50h300v388h-300v-388z" />
    <glyph glyph-name="fi" unicode="fi" horiz-adv-x="571" 
d="M579 512l-109 -512h-138l90 425h-157l-91 -425h-138l91 425h-78l18 87h79l9 40q14 65 57.5 101.5t113.5 36.5h95l-22 -105h-54q-21 0 -37 -16t-21 -38l-4 -19h296zM478 690h139l-24 -113h-140z" />
    <glyph glyph-name="fl" unicode="fl" horiz-adv-x="576" 
d="M618 690l-146 -690h-138l125 585h-114q-21 0 -37 -16t-21 -38l-4 -19h100l-19 -87h-99l-91 -425h-138l91 425h-78l18 87h79l9 40q14 65 57.5 101.5t113.5 36.5h292z" />
    <glyph glyph-name="f_f" unicode="ff" horiz-adv-x="636" 
d="M642 585q-21 0 -37 -16t-21 -38l-4 -19h100l-19 -87h-99l-91 -425h-138l91 425h-159l-91 -425h-138l91 425h-78l18 87h79l9 40q14 65 57.5 101.5t113.5 36.5h95l-22 -105h-54q-21 0 -37 -16t-21 -38l-4 -19h160l9 40q14 65 57.5 101.5t113.5 36.5h95l-22 -105h-54z" />
    <glyph glyph-name="f_f_i" unicode="ffi" horiz-adv-x="868" 
d="M680 512l-19 -87h-99l-91 -425h-138l91 425h-159l-91 -425h-138l91 425h-78l18 87h79l9 40q14 65 57.5 101.5t113.5 36.5h95l-22 -105h-54q-21 0 -37 -16t-21 -38l-4 -19h160l9 40q14 65 57.5 101.5t113.5 36.5h95l-22 -105h-54q-21 0 -37 -16t-21 -38l-4 -19h100z
M774 690h139l-23 -113h-141zM629 0l108 512h138l-109 -512h-137z" />
    <glyph glyph-name="f_f_l" unicode="ffl" horiz-adv-x="872" 
d="M680 512l-19 -87h-99l-91 -425h-138l91 425h-159l-91 -425h-138l91 425h-78l18 87h79l9 40q14 65 57.5 101.5t113.5 36.5h95l-22 -105h-54q-21 0 -37 -16t-21 -38l-4 -19h160l9 40q14 65 57.5 101.5t113.5 36.5h95l-22 -105h-54q-21 0 -37 -16t-21 -38l-4 -19h100z
M777 690h137l-146 -690h-138z" />
    <glyph glyph-name=".notdef" horiz-adv-x="500" 
d="M50 0v488h400v-488h-400zM100 50h300v388h-300v-388z" />
    <glyph glyph-name=".null" horiz-adv-x="0" 
 />
    <glyph glyph-name="nonmarkingreturn" horiz-adv-x="333" 
 />
    <glyph glyph-name="space" unicode=" " horiz-adv-x="229" 
 />
    <glyph glyph-name="exclam" unicode="!" horiz-adv-x="230" 
d="M56 221l86 469h129l-113 -469h-102zM-11 0l32 148h141l-32 -148h-141z" />
    <glyph glyph-name="quotedbl" unicode="&#x22;" horiz-adv-x="372" 
d="M66 408l60 282h112l-60 -282h-112zM256 408l60 282h115l-60 -282h-115z" />
    <glyph glyph-name="numbersign" unicode="#" horiz-adv-x="641" 
d="M92 0l40 198h-101v94h121l23 115h-105v92h124l40 191h98l-39 -184h117l39 184h97l-38 -189h101v-94h-120l-23 -115h105v-92h-124l-41 -200h-99l41 194h-117l-40 -194h-99zM250 292h117l23 115h-117z" />
    <glyph glyph-name="dollar" unicode="$" horiz-adv-x="542" 
d="M334 432q33 -12 50.5 -19.5t45 -23.5t42 -32.5t26 -43t11.5 -59.5q0 -103 -66.5 -176t-169.5 -84l-18 -81h-96l19 85q-130 29 -177 168l113 73q37 -118 137 -118q51 0 84 27t33 68q0 33 -20.5 50t-69.5 38q-2 1 -3.5 1.5t-4 1.5t-4.5 2q-85 34 -114 57q-49 39 -49 105
q0 94 62.5 156t160.5 71l16 74h96l-17 -79q84 -19 141 -103l-92 -83q-41 73 -121 73q-42 0 -72.5 -22t-30.5 -52q0 -26 19 -40t69 -34z" />
    <glyph glyph-name="percent" unicode="%" horiz-adv-x="787" 
d="M215 358q-58 0 -87.5 37.5t-29.5 95.5q0 78 47 144t119 66q57 0 86 -38t29 -96q0 -78 -46 -143.5t-118 -65.5zM103 0l495 690h123l-494 -690h-124zM222 453q25 0 42.5 33.5t17.5 69.5q0 49 -30 49q-25 0 -42 -33.5t-17 -69.5q0 -21 7.5 -35t21.5 -14zM563 -11
q-58 0 -87.5 37.5t-29.5 95.5q0 78 47 144t119 66q57 0 86 -38t29 -96q0 -78 -46 -143.5t-118 -65.5zM570 84q25 0 42.5 33.5t17.5 69.5q0 49 -30 49q-25 0 -42 -33.5t-17 -69.5q0 -21 7.5 -35t21.5 -14z" />
    <glyph glyph-name="ampersand" unicode="&#x26;" horiz-adv-x="695" 
d="M681 361l-182 -196l122 -165h-171l-45 65q-79 -78 -194 -78q-85 0 -141.5 43t-56.5 120q0 82 52 140.5t140 88.5q-50 58 -50 121q0 89 61.5 144t158.5 55q71 0 119 -36.5t48 -105.5q0 -73 -42.5 -120t-131.5 -96l63 -85l170 178zM367 583q-39 0 -62 -24t-23 -59
q0 -41 26 -78l2 -2q104 55 104 119q0 19 -12.5 31.5t-34.5 12.5zM219 104q62 0 121 56l-87 127q-101 -46 -101 -120q0 -27 18.5 -45t48.5 -18z" />
    <glyph glyph-name="quotesingle" unicode="'" horiz-adv-x="183" 
d="M66 408l60 282h115l-60 -282h-115z" />
    <glyph glyph-name="parenleft" unicode="(" horiz-adv-x="301" 
d="M76 -147q-38 70 -45 197.5t20 256.5q27 123 82 241.5t125 193.5l134 -10q-171 -194 -226 -450t31 -439z" />
    <glyph glyph-name="parenright" unicode=")" horiz-adv-x="301" 
d="M-77 -147q173 192 229 455q53 249 -32 434l121 -10q39 -78 45.5 -200t-20.5 -250q-26 -123 -83.5 -246.5t-124.5 -192.5z" />
    <glyph glyph-name="asterisk" unicode="*" horiz-adv-x="337" 
d="M132 412l12 97l-77 -59l-38 63l91 38l-91 38l38 64l77 -60l-12 97h73l-13 -97l78 60l36 -64l-89 -38l89 -38l-36 -63l-78 59l13 -97h-73z" />
    <glyph glyph-name="plus" unicode="+" horiz-adv-x="557" 
d="M222 0v196h-194v114h194v196h113v-196h194v-114h-194v-196h-113z" />
    <glyph glyph-name="comma" unicode="," horiz-adv-x="269" 
d="M-45 -170l106 170h-59l34 158h165l-32 -158l-140 -170h-74z" />
    <glyph glyph-name="hyphen" unicode="-" horiz-adv-x="402" 
d="M7 196l24 114h362l-24 -114h-362z" />
    <glyph glyph-name="period" unicode="." horiz-adv-x="257" 
d="M-9 0l34 158h166l-34 -158h-166z" />
    <glyph glyph-name="slash" unicode="/" horiz-adv-x="395" 
d="M-22 -76l313 765h131l-312 -765h-132z" />
    <glyph glyph-name="zero" unicode="0" horiz-adv-x="591" 
d="M252 -10q-102 0 -153 72t-51 184q0 105 39.5 208t116.5 175t171 72q103 0 154.5 -72t51.5 -185q0 -104 -40 -207t-117.5 -175t-171.5 -72zM272 123q45 0 83 48t57 116t19 134q0 64 -20 104.5t-60 40.5q-46 0 -83.5 -48t-56.5 -115.5t-19 -133.5q0 -64 20.5 -105t59.5 -41
z" />
    <glyph glyph-name="one" unicode="1" horiz-adv-x="367" 
d="M118 0l119 554l-169 -101l27 139l172 98h138l-147 -690h-140z" />
    <glyph glyph-name="two" unicode="2" horiz-adv-x="552" 
d="M304 234q-43 -18 -65 -29.5t-46 -32.5t-33 -45h324l-27 -127h-468l24 114q11 50 34.5 88.5t62 66.5t66 43t76.5 37q42 19 63 30.5t48.5 31.5t39.5 44t12 55q0 29 -17.5 45t-49.5 16q-43 0 -78.5 -38t-49.5 -101l-132 30q28 111 99 174t176 63q91 0 141.5 -47t50.5 -126
q0 -59 -18 -105.5t-55 -80.5t-77.5 -57.5t-100.5 -48.5z" />
    <glyph glyph-name="three" unicode="3" horiz-adv-x="548" 
d="M230 -10q-91 0 -149 48t-58 137q0 32 7 61l134 -5q-4 -16 -4 -34q0 -35 22.5 -56t63.5 -21q51 0 87.5 35.5t36.5 80.5q0 31 -22.5 49t-61.5 18h-35l25 119h25q45 0 70 27.5t25 61.5q0 26 -17 42t-46 16q-39 0 -68.5 -24.5t-40.5 -69.5l-128 26q24 95 92.5 147t155.5 52
q81 0 134.5 -45.5t53.5 -122.5q0 -57 -31 -101.5t-90 -60.5v-5q39 -6 64.5 -38t25.5 -85q0 -108 -80 -180t-191 -72z" />
    <glyph glyph-name="four" unicode="4" horiz-adv-x="540" 
d="M523 690l-89 -419h77l-25 -121h-77l-33 -150h-138l32 150h-264l23 119l351 421h143zM295 271l56 249l-205 -249h149z" />
    <glyph glyph-name="five" unicode="5" horiz-adv-x="568" 
d="M564 563h-289l-49 -133q60 44 134 44q78 0 124 -49.5t46 -130.5q0 -122 -87 -213t-208 -91q-90 0 -147.5 57.5t-63.5 146.5l136 30q4 -45 26 -70t57 -25q58 0 101 48.5t43 105.5q0 35 -21 55t-56 20q-65 0 -115 -63l-128 38l137 357h388z" />
    <glyph glyph-name="six" unicode="6" horiz-adv-x="561" 
d="M243 -10q-92 0 -145.5 57t-53.5 166q0 119 42 230t122.5 184t177.5 73q155 0 192 -145l-109 -49q-11 40 -33 57t-58 17q-69 0 -117.5 -60.5t-69.5 -141.5q62 73 151 73q80 0 128.5 -46t48.5 -127q0 -118 -81 -203t-195 -85zM252 107q59 0 98 43.5t39 98.5
q0 38 -22.5 61.5t-63.5 23.5q-60 0 -98.5 -43.5t-38.5 -97.5q0 -37 22.5 -61.5t63.5 -24.5z" />
    <glyph glyph-name="seven" unicode="7" horiz-adv-x="450" 
d="M112 690h410l-32 -150q-71 -59 -123 -124.5t-87 -138t-55.5 -135.5t-41.5 -148l-148 12q92 358 320 556h-270z" />
    <glyph glyph-name="eight" unicode="8" horiz-adv-x="569" 
d="M239 -10q-99 0 -158 45.5t-59 124.5q0 76 48 136t126 77v3q-31 11 -51 43t-20 74q0 88 72 147.5t170 59.5q85 0 136 -43.5t51 -113.5q0 -60 -36.5 -107.5t-95.5 -63.5v-3q45 -12 71 -50.5t26 -91.5q0 -106 -81 -171.5t-199 -65.5zM319 420q45 0 75 33.5t28 73.5
q-1 28 -18 45t-48 17q-45 0 -75.5 -33.5t-28.5 -73.5q1 -27 18.5 -44.5t48.5 -17.5zM255 112q54 0 91.5 38t35.5 91q-2 34 -25.5 54t-62.5 20q-54 0 -91 -37.5t-35 -89.5q2 -35 25 -55.5t62 -20.5z" />
    <glyph glyph-name="nine" unicode="9" horiz-adv-x="561" 
d="M357 700q91 0 145 -57t54 -166q0 -119 -42.5 -230t-122.5 -184t-177 -73q-156 0 -193 145l110 49q11 -40 32.5 -57t57.5 -17q69 0 117.5 60.5t69.5 141.5q-61 -73 -151 -73q-79 0 -127.5 46t-48.5 127q0 118 80.5 203t195.5 85zM347 583q-59 0 -98 -43.5t-39 -98.5
q0 -37 23 -61t64 -24q59 0 97.5 43.5t38.5 97.5q0 38 -22.5 62t-63.5 24z" />
    <glyph glyph-name="colon" unicode=":" horiz-adv-x="257" 
d="M66 350l33 158h166l-34 -158h-165zM-9 0l34 158h166l-34 -158h-166z" />
    <glyph glyph-name="semicolon" unicode=";" horiz-adv-x="269" 
d="M75 350l33 158h166l-33 -158h-166zM-45 -170l106 170h-59l34 158h165l-32 -158l-140 -170h-74z" />
    <glyph glyph-name="less" unicode="&#x3c;" horiz-adv-x="657" 
d="M617 54l-534 275l534 275v-131l-289 -144l289 -143v-132z" />
    <glyph glyph-name="equal" unicode="=" horiz-adv-x="485" 
d="M30 304v121h424v-121h-424zM30 81v121h424v-121h-424z" />
    <glyph glyph-name="greater" unicode="&#x3e;" horiz-adv-x="603" 
d="M40 54v132l289 143l-289 144v131l534 -275z" />
    <glyph glyph-name="question" unicode="?" horiz-adv-x="437" 
d="M152 219l12 55q8 36 20 61.5t31 43.5t28.5 25t33.5 22q77 47 77 105q0 51 -61 51q-45 0 -73.5 -29t-36.5 -68l-111 13q18 85 77 143.5t148 58.5q74 0 121.5 -39t47.5 -117q0 -65 -30.5 -109t-98.5 -88q-26 -16 -41.5 -35t-23.5 -51l-9 -42h-111zM94 0l31 148h135
l-31 -148h-135z" />
    <glyph glyph-name="at" unicode="@" horiz-adv-x="911" 
d="M369 -183q-177 0 -268 124t-49 320q27 125 99.5 225.5t173.5 156.5t210 56q115 0 199.5 -61t118.5 -164.5t8 -223.5q-11 -52 -33.5 -102.5t-54.5 -94.5t-78 -71t-97 -27q-61 0 -91 36.5t-11 103.5q-62 -82 -146 -82q-76 0 -106.5 58.5t-11.5 150.5q24 111 102 196t163 85
q44 0 74 -24.5t29 -69.5l30 73h101l-142 -349q-18 -47 -13 -62.5t30 -16.5q48 0 95 57.5t68 156.5q30 138 -39 233t-195 95q-133 0 -246.5 -101.5t-146.5 -255.5q-29 -135 29.5 -228t195.5 -93q39 0 81 11l19 -99q-44 -13 -98 -13zM374 121q59 0 111 60t68 134q18 87 -48 87
q-60 0 -112 -59t-67 -132q-20 -90 48 -90z" />
    <glyph glyph-name="A" unicode="A" horiz-adv-x="641" 
d="M434 0l-13 154h-240l-79 -154h-156l372 690h186l79 -690h-149zM242 275h170l-23 279h-4z" />
    <glyph glyph-name="B" unicode="B" horiz-adv-x="608" 
d="M-1 0l147 690h272q87 0 135.5 -39.5t48.5 -109.5q0 -139 -127 -182v-2q43 -8 68.5 -41t25.5 -85q0 -105 -70.5 -168t-183.5 -63h-316zM229 411h108q133 0 133 99q0 54 -77 54h-132zM169 130h136q61 0 95.5 27.5t34.5 76.5q0 26 -21 42.5t-63 16.5h-148z" />
    <glyph glyph-name="C" unicode="C" horiz-adv-x="619" 
d="M278 -10q-121 0 -180 70t-59 184q0 121 44.5 225t130.5 168t194 64q105 0 165.5 -54.5t71.5 -156.5l-139 -42q-3 59 -27 90t-79 31q-98 0 -161 -98.5t-63 -215.5q0 -63 28 -98t78 -35q55 0 103.5 36.5t79.5 100.5l121 -69q-106 -200 -308 -200z" />
    <glyph glyph-name="D" unicode="D" horiz-adv-x="626" 
d="M-1 0l147 690h193q141 0 213 -66t72 -187q0 -197 -114 -317t-308 -120h-203zM169 134h40q125 0 199.5 82t74.5 208q0 132 -164 132h-60z" />
    <glyph glyph-name="E" unicode="E" horiz-adv-x="519" 
d="M-1 0l147 690h439l-28 -128h-297l-32 -152h269l-27 -128h-269l-33 -153h297l-27 -129h-439z" />
    <glyph glyph-name="F" unicode="F" horiz-adv-x="523" 
d="M-1 0l147 690h452l-27 -128h-311l-32 -152h270l-27 -128h-270l-60 -282h-142z" />
    <glyph glyph-name="G" unicode="G" horiz-adv-x="667" 
d="M362 265l26 121h266l-82 -386h-112l12 78q-38 -43 -92 -65.5t-111 -22.5q-112 0 -171 72.5t-59 189.5q0 120 48.5 222t139 164.5t203.5 62.5q106 0 168 -56t72 -143l-126 -29q-17 101 -123 101t-174.5 -96.5t-68.5 -220.5q0 -135 125 -135q73 0 127 41.5t71 101.5h-139z
" />
    <glyph glyph-name="H" unicode="H" horiz-adv-x="649" 
d="M-1 0l147 690h142l-60 -277h259l59 277h142l-147 -690h-142l59 278h-258l-59 -278h-142z" />
    <glyph glyph-name="I" unicode="I" horiz-adv-x="248" 
d="M-1 0l147 690h142l-147 -690h-142z" />
    <glyph glyph-name="J" unicode="J" horiz-adv-x="355" 
d="M52 -10q-64 0 -96 12l28 134q32 -7 56 -7q97 0 123 120l93 441h142l-104 -490q-21 -99 -83 -154.5t-159 -55.5z" />
    <glyph glyph-name="K" unicode="K" horiz-adv-x="650" 
d="M726 690l-327 -302l192 -388h-160l-135 292l-116 -107l-39 -185h-142l147 690h142l-67 -314l319 314h186z" />
    <glyph glyph-name="L" unicode="L" horiz-adv-x="478" 
d="M-1 0l147 690h142l-120 -562h277l-27 -128h-419z" />
    <glyph glyph-name="M" unicode="M" horiz-adv-x="845" 
d="M-1 0l147 690h204l51 -512l273 512h210l-147 -690h-142l109 511h-4l-268 -511h-128l-49 511h-7l-109 -511h-140z" />
    <glyph glyph-name="N" unicode="N" horiz-adv-x="680" 
d="M-1 0l147 690h147l178 -469h6l100 469h142l-146 -690h-150l-176 467h-7l-99 -467h-142z" />
    <glyph glyph-name="O" unicode="O" horiz-adv-x="684" 
d="M294 -10q-120 0 -187.5 69.5t-67.5 191.5q0 50 12 107q34 157 134.5 249.5t237.5 92.5q122 0 190.5 -69.5t68.5 -191.5q0 -52 -13 -107q-33 -157 -134 -249.5t-241 -92.5zM300 121q79 0 140.5 64.5t83.5 172.5q9 40 9 74q0 65 -30.5 101t-85.5 36q-77 0 -137 -64.5
t-82 -172.5q-9 -42 -9 -77q0 -63 29 -98.5t82 -35.5z" />
    <glyph glyph-name="P" unicode="P" horiz-adv-x="596" 
d="M-1 0l147 690h274q99 0 151 -48t52 -131q0 -122 -74 -198t-195 -76h-163l-51 -237h-141zM218 367h136q61 0 96 34.5t35 85.5q0 73 -92 73h-134z" />
    <glyph glyph-name="Q" unicode="Q" horiz-adv-x="687" 
d="M684 439q0 -101 -35.5 -191.5t-100.5 -153.5l54 -72l-98 -74l-56 76q-70 -34 -152 -34q-120 0 -187.5 69.5t-67.5 191.5q0 118 47 220.5t136.5 165.5t200.5 63q122 0 190.5 -69.5t68.5 -191.5zM302 121q32 0 66 13l-77 105l95 72l76 -102q73 98 73 223q0 65 -30.5 101
t-85.5 36q-66 0 -120 -49t-81 -120.5t-27 -144.5q0 -63 29 -98.5t82 -35.5z" />
    <glyph glyph-name="R" unicode="R" horiz-adv-x="641" 
d="M-1 -1l147 691h302q88 0 136.5 -43t48.5 -121t-42 -138t-118 -91l85 -298h-152l-68 279h-140l-59 -279h-140zM224 396h157q54 1 84.5 32t30.5 75q0 60 -77 60h-159z" />
    <glyph glyph-name="S" unicode="S" horiz-adv-x="542" 
d="M239 -8q-86 0 -148 45t-90 129l113 73q37 -118 137 -118q51 0 84 27t33 68q0 33 -20.5 50t-69.5 38q-2 1 -3.5 1.5t-4 1.5t-4.5 2q-85 34 -114 57q-49 39 -49 105q0 102 72.5 165.5t183.5 63.5q129 0 203 -110l-92 -83q-41 73 -121 73q-42 0 -72.5 -22t-30.5 -52
q0 -26 19 -40t69 -34q33 -12 50.5 -19.5t45 -23.5t42 -32.5t26 -43t11.5 -59.5q0 -112 -77.5 -187t-192.5 -75z" />
    <glyph glyph-name="T" unicode="T" horiz-adv-x="540" 
d="M144 0l119 562h-193l27 128h530l-27 -128h-194l-120 -562h-142z" />
    <glyph glyph-name="U" unicode="U" horiz-adv-x="613" 
d="M259 -10q-110 0 -165.5 51t-55.5 144q0 40 10 83l89 422h142l-93 -440q-4 -19 -4 -40q0 -82 96 -82q55 0 95 36t52 93l92 433h142l-91 -430q-57 -270 -309 -270z" />
    <glyph glyph-name="V" unicode="V" horiz-adv-x="644" 
d="M176 0l-79 690h149l45 -554h4l283 554h156l-372 -690h-186z" />
    <glyph glyph-name="W" unicode="W" horiz-adv-x="918" 
d="M847 690h150l-281 -690h-210l10 524l-212 -524h-210l12 690h146l-23 -558l233 558h176l-4 -556z" />
    <glyph glyph-name="X" unicode="X" horiz-adv-x="649" 
d="M739 690l-294 -345l144 -345h-163l-95 244l-203 -244h-180l294 345l-142 345h164l93 -249l202 249h180z" />
    <glyph glyph-name="Y" unicode="Y" horiz-adv-x="642" 
d="M196 0l59 269l-164 421h157l104 -283l222 283h165l-343 -421l-59 -269h-141z" />
    <glyph glyph-name="Z" unicode="Z" horiz-adv-x="576" 
d="M645 690l-21 -107l-427 -455h329l-28 -128h-533l19 99l439 463h-318l27 128h513z" />
    <glyph glyph-name="bracketleft" unicode="[" horiz-adv-x="312" 
d="M-12 -152l188 884h210l-26 -123h-85l-135 -636h85l-27 -125h-210z" />
    <glyph glyph-name="backslash" unicode="\" 
d="M372 -76l-313 765h131l313 -765h-131z" />
    <glyph glyph-name="bracketright" unicode="]" horiz-adv-x="312" 
d="M-60 -152l27 125h84l136 636h-85l26 123h210l-188 -884h-210z" />
    <glyph glyph-name="asciicircum" unicode="^" horiz-adv-x="496" 
d="M33 249l305 441l122 -441h-131l-35 196l-123 -196h-138z" />
    <glyph glyph-name="underscore" unicode="_" horiz-adv-x="409" 
d="M-77 -109l23 109h408l-24 -109h-407z" />
    <glyph glyph-name="grave" unicode="`" horiz-adv-x="256" 
d="M213 571l-108 119h128l70 -119h-90z" />
    <glyph glyph-name="a" unicode="a" horiz-adv-x="503" 
d="M292 522q87 0 137.5 -34.5t50.5 -104.5q0 -20 -5 -47l-72 -336h-122l11 51q-73 -62 -154 -62q-64 0 -101 31.5t-37 86.5q0 56 31.5 99.5t87.5 67.5q67 30 235 69q2 16 2 21q0 53 -67 53q-82 0 -147 -73l-74 79q88 99 224 99zM191 81q63 0 121 62l21 101q-87 -20 -134 -44
q-67 -32 -67 -73q0 -46 59 -46z" />
    <glyph glyph-name="b" unicode="b" horiz-adv-x="575" 
d="M288 -11q-53 0 -90.5 24.5t-49.5 61.5h-4l-15 -75h-135l147 690h137l-47 -228h5q62 60 147 60q83 0 125.5 -57.5t42.5 -144.5q0 -78 -30.5 -152.5t-92.5 -126.5t-140 -52zM259 107q67 0 111.5 63.5t44.5 134.5q0 44 -21 71t-64 27q-65 0 -108.5 -65t-43.5 -139
q0 -42 20 -67t61 -25z" />
    <glyph glyph-name="c" unicode="c" horiz-adv-x="511" 
d="M222 -11q-98 0 -148 55.5t-50 146.5q0 136 82 233.5t208 97.5q89 0 137.5 -43t56.5 -118l-119 -30q-1 37 -25 56.5t-61 19.5q-65 0 -106.5 -60t-41.5 -134q0 -47 21 -77.5t64 -30.5q77 0 119 92l101 -54q-41 -79 -99 -116.5t-139 -37.5z" />
    <glyph glyph-name="d" unicode="d" horiz-adv-x="573" 
d="M192 -11q-80 0 -125 54t-45 144q0 82 30.5 157.5t91.5 126.5t138 51q54 0 91.5 -24t49.5 -59h4l52 251h137l-146 -690h-135l12 62h-1q-59 -73 -154 -73zM244 107q65 0 109 65t44 139q0 92 -83 92q-66 0 -110.5 -63.5t-44.5 -133.5q0 -44 21 -71.5t64 -27.5z" />
    <glyph glyph-name="e" unicode="e" horiz-adv-x="526" 
d="M483 221h-322q-2 -22 -2 -30q0 -87 85 -87q78 0 137 65l75 -76q-57 -57 -109 -80t-113 -23q-96 0 -154 51.5t-58 146.5q0 136 82 235t208 99q95 0 145 -51t50 -134q0 -61 -24 -116zM307 414q-49 0 -81 -29.5t-45 -73.5h189q5 20 5 35q0 68 -68 68z" />
    <glyph glyph-name="f" unicode="f" horiz-adv-x="340" 
d="M36 0l91 425h-78l18 87h79l9 40q14 65 57.5 101.5t113.5 36.5h95l-22 -105h-54q-21 0 -37 -16t-21 -38l-4 -19h100l-19 -87h-99l-91 -425h-138z" />
    <glyph glyph-name="g" unicode="g" horiz-adv-x="572" 
d="M206 -188q-167 0 -232 98l74 80q41 -70 139 -70q53 0 94 29.5t56 82.5l13 48q-50 -64 -150 -64q-80 0 -127.5 51t-47.5 139q0 77 30.5 148.5t91.5 119.5t138 48q52 0 89 -23t50 -57l1 5l14 65h137l-103 -486q-13 -61 -41.5 -105t-67 -66.5t-77.5 -32.5t-81 -10zM250 124
q63 0 106 63t43 134q0 88 -80 88q-65 0 -108 -61t-43 -129q0 -42 20.5 -68.5t61.5 -26.5z" />
    <glyph glyph-name="h" unicode="h" 
d="M383 522q69 0 105.5 -38t36.5 -101q0 -15 -6 -51l-71 -332h-137l68 319q4 16 4 32q0 54 -55 54q-48 0 -86 -32t-47 -76l-63 -297h-138l147 690h137l-49 -237q60 69 154 69z" />
    <glyph glyph-name="i" unicode="i" horiz-adv-x="232" 
d="M113 577l25 113h139l-23 -113h-141zM-7 0l108 512h138l-109 -512h-137z" />
    <glyph glyph-name="j" unicode="j" horiz-adv-x="236" 
d="M118 577l24 113h140l-23 -113h-141zM-121 -178l13 115q43 0 73 26t38 63l103 486h137l-105 -494q-21 -102 -82.5 -149t-176.5 -47z" />
    <glyph glyph-name="k" unicode="k" horiz-adv-x="556" 
d="M588 512l-236 -202l139 -310h-146l-90 226l-92 -78l-31 -148h-138l147 690h137l-77 -366l215 188h172z" />
    <glyph glyph-name="l" unicode="l" horiz-adv-x="236" 
d="M-6 0l147 690h137l-146 -690h-138z" />
    <glyph glyph-name="m" unicode="m" horiz-adv-x="797" 
d="M-6 0l109 512h135l-14 -70h3q54 80 139 80q93 0 115 -93h4q63 93 153 93q66 0 101 -36.5t35 -99.5q0 -30 -7 -58l-69 -328h-138l67 314q4 15 4 31q0 51 -51 51q-81 0 -105 -106l-61 -290h-138l67 314q4 26 4 35q0 47 -49 47q-81 0 -105 -106l-61 -290h-138z" />
    <glyph glyph-name="n" unicode="n" 
d="M-6 0l109 512h136l-15 -64h4q58 74 155 74q66 0 104 -38.5t38 -101.5q0 -14 -6 -50l-71 -332h-137l66 308q5 20 5 40q0 55 -65 55q-46 0 -80 -35t-48 -101l-57 -267h-138z" />
    <glyph glyph-name="o" unicode="o" horiz-adv-x="553" 
d="M231 -11q-101 0 -154 62t-53 155q0 76 33.5 147t104 120t161.5 49q100 0 153 -62t53 -155q0 -76 -33.5 -147t-103.5 -120t-161 -49zM245 108q65 0 108.5 62.5t43.5 132.5q0 45 -21.5 73t-65.5 28q-64 0 -107.5 -63t-43.5 -133q0 -44 21.5 -72t64.5 -28z" />
    <glyph glyph-name="p" unicode="p" horiz-adv-x="575" 
d="M-43 -178l146 690h135l-12 -62h3q56 73 152 73q81 0 126 -54t45 -144q0 -82 -31 -157.5t-92 -126.5t-138 -51q-53 0 -91 24t-50 59h-4l-52 -251h-137zM259 109q67 0 111 63.5t44 133.5q0 44 -20.5 71.5t-63.5 27.5q-65 0 -109.5 -65t-44.5 -139q0 -43 21 -67.5t62 -24.5z
" />
    <glyph glyph-name="q" unicode="q" horiz-adv-x="575" 
d="M287 523q53 0 90.5 -24.5t49.5 -61.5h4l15 75h135l-147 -690h-137l47 228h-5q-62 -60 -147 -60q-83 0 -125.5 57.5t-42.5 144.5q0 78 30.5 152.5t92.5 126.5t140 52zM316 405q-67 0 -111.5 -63.5t-44.5 -134.5q0 -44 21 -71t64 -27q65 0 108.5 65t43.5 139q0 42 -20 67
t-61 25z" />
    <glyph glyph-name="r" unicode="r" horiz-adv-x="360" 
d="M-6 0l109 512h133l-14 -69h2q52 77 121 77q27 0 52 -11l-25 -118q-33 -3 -39 -4q-60 -10 -99.5 -55t-54.5 -114l-47 -218h-138z" />
    <glyph glyph-name="s" unicode="s" horiz-adv-x="470" 
d="M200 -11q-63 0 -120.5 24t-93.5 67l73 83q48 -69 138 -69q35 0 63 16t28 44q0 22 -18.5 33.5t-60.5 23.5q-32 8 -53.5 16t-44.5 22t-35 37.5t-12 54.5q0 87 59 134t154 47q119 0 189 -78l-66 -81q-47 58 -125 58q-33 0 -57 -14t-24 -38q0 -7 2.5 -12.5t9 -10.5t11.5 -8
t16.5 -7.5t17.5 -6.5t21 -6t20 -6q61 -18 95.5 -47.5t34.5 -86.5q0 -89 -60.5 -139t-161.5 -50z" />
    <glyph glyph-name="t" unicode="t" horiz-adv-x="347" 
d="M146 0q-45 0 -70 26t-25 71q0 16 5 39l62 289h-67l19 87h66l38 178h137l-38 -178h104l-18 -87h-105l-56 -265q-3 -16 -3 -25q0 -12 7 -16.5t23 -4.5h68l-25 -114h-122z" />
    <glyph glyph-name="u" unicode="u" 
d="M164 -10q-66 0 -104 38.5t-38 101.5q0 23 6 50l70 332h138l-66 -308q-5 -20 -5 -40q0 -55 65 -55q46 0 80 35t48 101l57 267h138l-109 -512h-136l14 64h-3q-60 -74 -155 -74z" />
    <glyph glyph-name="v" unicode="v" horiz-adv-x="524" 
d="M422 512h150l-283 -512h-160l-65 512h145l25 -382z" />
    <glyph glyph-name="w" unicode="w" horiz-adv-x="793" 
d="M687 512h149l-236 -512h-180l-9 316l-144 -316h-181l-17 512h144l-6 -393l180 393h125l14 -393z" />
    <glyph glyph-name="x" unicode="x" horiz-adv-x="536" 
d="M-47 0l230 266l-117 246h146l70 -172l140 172h168l-232 -262l119 -250h-142l-74 174l-135 -174h-173z" />
    <glyph glyph-name="y" unicode="y" horiz-adv-x="504" 
d="M-43 -178l13 115q105 0 156 81l-69 494h143l29 -335h8l164 335h151l-297 -527q-58 -102 -117 -132.5t-181 -30.5z" />
    <glyph glyph-name="z" unicode="z" horiz-adv-x="467" 
d="M495 512l-22 -109l-291 -287h227l-24 -116h-411l19 103l305 294h-238l25 115h410z" />
    <glyph glyph-name="braceleft" unicode="{" horiz-adv-x="313" 
d="M141 -152q-59 0 -93.5 47t-20.5 110l39 186q6 27 -2.5 33.5t-38.5 6.5l15 122q61 0 72 53l40 186q14 63 61 104t106 41h68l-29 -134h-32q-19 0 -36 -15t-22 -34l-36 -171q0 -1 -2 -9.5t-2.5 -10.5t-3 -9.5t-4 -10t-4.5 -9.5t-6 -10t-8 -9t-10.5 -10t-12.5 -9t-15 -10
q40 -26 27 -98l-37 -170q-7 -37 29 -37h43l-28 -133h-57z" />
    <glyph glyph-name="bar" unicode="|" horiz-adv-x="300" 
d="M29 -76l163 766h100l-163 -766h-100z" />
    <glyph glyph-name="braceright" unicode="}" horiz-adv-x="313" 
d="M-58 -152l29 133h32q19 0 36 15t22 34l36 171q5 24 8.5 35t18.5 30t41 33q-41 29 -27 97l37 171q7 36 -29 36h-43l28 134h57q59 0 93.5 -47t20.5 -110l-40 -186q-5 -27 3.5 -34t38.5 -7l-16 -122q-59 0 -72 -53l-39 -186q-13 -62 -60.5 -103t-106.5 -41h-68z" />
    <glyph glyph-name="asciitilde" unicode="~" horiz-adv-x="507" 
d="M347 174q-35 0 -66 19t-57.5 37.5t-50.5 18.5q-20 0 -33.5 -16t-12.5 -52h-102q0 85 33.5 131.5t97.5 46.5q38 0 69 -18.5t56.5 -37t49.5 -18.5q48 0 48 73h103q0 -89 -35 -136.5t-100 -47.5z" />
    <glyph glyph-name="exclamdown" unicode="&#xa1;" horiz-adv-x="297" 
d="M101 364l32 148h140l-32 -148h-140zM-9 -178l113 469h103l-87 -469h-129z" />
    <glyph glyph-name="cent" unicode="&#xa2;" horiz-adv-x="511" 
d="M240 105q77 0 119 92l101 -54q-69 -135 -196 -151l-19 -92h-100l20 95q-70 15 -105.5 67.5t-35.5 128.5q0 125 70.5 219t181.5 109l14 67h101l-15 -71q59 -13 92.5 -53.5t39.5 -100.5l-119 -30q-1 37 -25 56.5t-61 19.5q-65 0 -106.5 -60t-41.5 -134q0 -47 21 -77.5
t64 -30.5z" />
    <glyph glyph-name="sterling" unicode="&#xa3;" horiz-adv-x="648" 
d="M249 258l-28 -134h344l-27 -124h-469l55 258h-76l24 115h76l15 71q24 114 103.5 185t180.5 71q78 0 135 -51t65 -129l-124 -33q-2 37 -25.5 58t-57.5 21q-56 0 -98.5 -37.5t-55.5 -96.5l-12 -59h174l-24 -115h-175z" />
    <glyph glyph-name="currency" unicode="&#xa4;" horiz-adv-x="726" 
d="M182 67l-82 86l53 52q-36 57 -36 127t36 127l-53 52l82 86l54 -56q58 37 127 37t127 -37l54 56l82 -86l-53 -52q36 -57 36 -127t-36 -127l53 -52l-82 -86l-54 56q-58 -37 -127 -37t-127 37zM363 203q51 0 92 38q37 40 37 91t-37 91q-41 38 -92 38t-92 -38
q-37 -40 -37 -91t37 -91q41 -38 92 -38z" />
    <glyph glyph-name="yen" unicode="&#xa5;" horiz-adv-x="638" 
d="M204 -16l18 83h-137l20 95h137l18 83h-137l21 98h90l-143 347h135l112 -318l254 318h144l-292 -349h86l-20 -96h-137l-18 -83h138l-21 -95h-137l-18 -83h-113z" />
    <glyph glyph-name="brokenbar" unicode="&#xa6;" horiz-adv-x="317" 
d="M125 375l67 315h117l-67 -315h-117zM29 -76l63 293h117l-63 -293h-117z" />
    <glyph glyph-name="section" unicode="&#xa7;" horiz-adv-x="532" 
d="M221 -9q-49 0 -88.5 13t-67.5 47t-29 86l127 27q1 -61 77 -61q39 0 65 17t26 48q0 21 -24.5 31t-59.5 15.5t-70 14t-59.5 33t-24.5 65.5q0 78 70 133q-25 25 -25 69q0 73 56 122t143 49q76 0 123.5 -35t54.5 -103l-114 -16q-1 54 -66 54q-36 0 -60 -18.5t-24 -45.5
q0 -19 24 -29t58.5 -16.5t69.5 -16.5t59 -37t24 -70q0 -80 -66 -132q25 -22 25 -63q0 -86 -63 -133.5t-161 -47.5zM322 305q43 21 43 55q0 23 -28 32.5t-77 14.5q-44 -20 -44 -54q0 -6 1.5 -11t6 -9t8.5 -7t11.5 -5.5t13 -4t15.5 -3.5t15.5 -3t17.5 -2.5t17 -2.5z" />
    <glyph glyph-name="dieresis" unicode="&#xa8;" horiz-adv-x="412" 
d="M132 576l25 114h111l-24 -114h-112zM304 576l24 114h112l-25 -114h-111z" />
    <glyph glyph-name="copyright" unicode="&#xa9;" horiz-adv-x="832" 
d="M435 -31q-155 0 -266 111.5t-111 265.5t111 265.5t266 111.5t266 -111t111 -266t-111 -266t-266 -111zM435 30q130 0 223.5 93t93.5 223t-93.5 223t-223.5 93t-223 -93t-93 -223t93 -223t223 -93zM439 117q-105 0 -162.5 66t-57.5 164q0 100 57 165.5t162 65.5
q149 0 202 -134l-105 -40q-19 75 -93 75q-48 0 -73.5 -37t-25.5 -96q0 -56 25.5 -92t73.5 -36q73 0 94 74l100 -36q-47 -139 -197 -139z" />
    <glyph glyph-name="ordfeminine" unicode="&#xaa;" horiz-adv-x="366" 
d="M199 700q59 0 93.5 -23.5t34.5 -71.5q0 -15 -3 -32l-49 -229h-84l7 34q-50 -42 -104 -42q-44 0 -69.5 21.5t-25.5 59.5q0 78 81 114q38 17 161 48q2 10 2 14q0 35 -46 35q-57 0 -101 -49l-50 54q59 67 153 67zM130 399q43 0 82 43l15 69q-66 -18 -92 -31q-46 -20 -46 -50
q0 -31 41 -31z" />
    <glyph glyph-name="guillemotleft" unicode="&#xab;" horiz-adv-x="556" 
d="M205 68l-175 181l249 183l-21 -116l-96 -67l65 -66zM435 68l-176 181l250 183l-21 -116l-97 -67l65 -66z" />
    <glyph glyph-name="logicalnot" unicode="&#xac;" horiz-adv-x="690" 
d="M424 75v186h-340v128h482v-314h-142z" />
    <glyph glyph-name="uni00AD" unicode="&#xad;" horiz-adv-x="362" 
d="M-13 196l24 114h362l-24 -114h-362z" />
    <glyph glyph-name="registered" unicode="&#xae;" horiz-adv-x="583" 
d="M291 172q-107 0 -182.5 77t-75.5 187t75.5 187t182.5 77t183 -77.5t76 -186.5t-76 -186.5t-183 -77.5zM291 229q84 0 144.5 61t60.5 146t-60.5 146.5t-144.5 61.5t-144 -61.5t-60 -146.5t60 -146t144 -61zM201 305v264h106q44 0 68.5 -22t24.5 -61q0 -52 -48 -76l69 -105
h-77l-54 95h-21v-95h-68zM266 459h41q30 0 30 27t-30 27h-41v-54z" />
    <glyph glyph-name="macron" unicode="&#xaf;" horiz-adv-x="381" 
d="M131 575l16 75h254l-15 -75h-255z" />
    <glyph glyph-name="degree" unicode="&#xb0;" horiz-adv-x="464" 
d="M232 373q-73 0 -120 46t-47 118q0 71 47 117t120 46t120 -46t47 -117q0 -72 -47 -118t-120 -46zM232 469q31 0 50 19t19 49q0 29 -19 47.5t-50 18.5t-50 -18.5t-19 -47.5q0 -30 19 -49t50 -19z" />
    <glyph glyph-name="plusminus" unicode="&#xb1;" horiz-adv-x="722" 
d="M306 156v198h-223v110h223v198h109v-198h223v-110h-223v-198h-109zM84 -1v109h554v-109h-554z" />
    <glyph glyph-name="uni00B2" unicode="&#xb2;" horiz-adv-x="364" 
d="M236 416q-25 -11 -39 -18t-28 -19t-19 -27h194l-16 -76h-281l14 68q7 30 21 53.5t37 40t40 25.5t46 22q25 12 37.5 19t29.5 19t24 26.5t7 32.5q0 37 -40 37q-26 0 -47.5 -23t-29.5 -61l-80 18q18 67 60.5 104.5t105.5 37.5q55 0 85 -28t30 -76q0 -67 -38 -105t-113 -70z
" />
    <glyph glyph-name="uni00B3" unicode="&#xb3;" horiz-adv-x="358" 
d="M189 270q-55 0 -90 29t-35 82q0 11 4 37l81 -4q-2 -7 -2 -20q0 -21 13.5 -33.5t37.5 -12.5q31 0 53 21t22 48q0 19 -14 30t-37 11h-21l15 71h15q27 0 42 16.5t15 37.5q0 15 -10 24.5t-28 9.5q-23 0 -40.5 -14.5t-24.5 -41.5l-77 16q14 57 55.5 88t93.5 31q49 0 81 -27
t32 -74q0 -34 -18.5 -61t-54.5 -36v-3q23 -4 38.5 -23t15.5 -51q0 -64 -48 -107.5t-114 -43.5z" />
    <glyph glyph-name="acute" unicode="&#xb4;" horiz-adv-x="277" 
d="M83 571l133 119h138l-175 -119h-96z" />
    <glyph glyph-name="uni00B5" unicode="&#xb5;" horiz-adv-x="641" 
d="M18 -130l136 642h138l-65 -308q-18 -85 56 -85q48 0 83 31.5t45 75.5l60 286h138l-109 -512h-135l15 64l-7 -5q-57 -71 -154 -71q-34 0 -51 14l-41 -132h-109z" />
    <glyph glyph-name="paragraph" unicode="&#xb6;" horiz-adv-x="591" 
d="M161 -140l100 444q-85 0 -137 57t-32 149q17 83 86.5 131.5t153.5 48.5h87l-177 -830h-81zM325 -140l177 830h81l-176 -830h-82z" />
    <glyph glyph-name="periodcentered" unicode="&#xb7;" horiz-adv-x="348" 
d="M175 306q-35 0 -57.5 22.5t-22.5 54.5q0 35 22.5 57.5t57.5 22.5q32 0 54.5 -22.5t22.5 -57.5q0 -32 -22.5 -54.5t-54.5 -22.5z" />
    <glyph glyph-name="cedilla" unicode="&#xb8;" horiz-adv-x="270" 
d="M29 -244q-40 0 -66.5 22.5t-29.5 54.5l64 17q6 -24 34 -24q18 0 31 13t13 32q0 23 -29 32l-61 16l85 108l73 -27l-55 -58l5 -2q53 -18 53 -77q0 -47 -34.5 -77t-82.5 -30z" />
    <glyph glyph-name="uni00B9" unicode="&#xb9;" horiz-adv-x="252" 
d="M117 276l72 332l-102 -60l17 83l103 59h83l-89 -414h-84z" />
    <glyph glyph-name="ordmasculine" unicode="&#xba;" horiz-adv-x="397" 
d="M157 340q-68 0 -104 41.5t-36 104.5q0 81 55.5 147t146.5 66q68 0 103.5 -42t35.5 -104q0 -82 -55 -147.5t-146 -65.5zM166 420q44 0 73.5 42t29.5 89q0 30 -14.5 49t-43.5 19q-44 0 -73 -42.5t-29 -89.5q0 -67 57 -67z" />
    <glyph glyph-name="guillemotright" unicode="&#xbb;" horiz-adv-x="556" 
d="M43 68l23 118l96 63l-66 64l22 119l175 -183zM273 68l22 118l95 63l-65 64l22 119l176 -183z" />
    <glyph glyph-name="onequarter" unicode="&#xbc;" horiz-adv-x="712" 
d="M93 276l71 333l-101 -61l16 83l103 59h83l-88 -414h-84zM523 690h86l-453 -690h-83zM682 414l-54 -251h46l-15 -73h-46l-19 -90h-83l19 90h-159l14 72l211 252h86zM545 163l33 149l-122 -149h89z" />
    <glyph glyph-name="onehalf" unicode="&#xbd;" horiz-adv-x="739" 
d="M93 276l71 333l-101 -61l16 83l103 59h83l-88 -414h-84zM523 690h86l-453 -690h-83zM567 141q-26 -12 -39 -18.5t-28 -19t-20 -27.5h195l-17 -76h-281l15 68q5 24 16.5 45t24 34t32.5 26t33.5 19.5t36.5 16.5q25 12 37.5 19t29.5 19t24 27t7 34q0 35 -37 35
q-28 0 -50 -23t-30 -61l-79 18q17 67 59.5 104.5t105.5 37.5q55 0 85 -28t30 -76q0 -68 -38.5 -106.5t-111.5 -67.5z" />
    <glyph glyph-name="threequarters" unicode="&#xbe;" horiz-adv-x="808" 
d="M333 421q0 -64 -48.5 -107.5t-114.5 -43.5q-54 0 -89 29t-35 82q0 20 4 37l80 -4q-2 -12 -2 -20q0 -21 13.5 -33.5t37.5 -12.5q32 0 53.5 21t21.5 49q0 18 -14 29t-37 11h-21l16 71h14q27 0 42 16.5t15 37.5q0 34 -37 34q-51 0 -66 -56l-76 16q14 57 55 88t93 31
q49 0 81.5 -27t32.5 -74q0 -34 -19 -60.5t-55 -36.5v-3q24 -4 39.5 -23t15.5 -51zM618 690h86l-453 -690h-83zM777 414l-54 -251h46l-15 -73h-46l-19 -90h-83l19 90h-159l14 72l211 252h86zM640 163l33 149l-122 -149h89z" />
    <glyph glyph-name="questiondown" unicode="&#xbf;" horiz-adv-x="452" 
d="M184 364l31 148h135l-31 -148h-135zM147 -188q-74 0 -121.5 39t-47.5 117q0 65 30.5 109t98.5 88q26 16 41.5 35t23.5 51l9 42h111l-12 -55q-8 -36 -20 -61.5t-31 -43.5t-28.5 -25t-33.5 -22q-77 -47 -77 -105q0 -51 61 -51q45 0 73.5 29t36.5 68l111 -13
q-18 -85 -77 -143.5t-148 -58.5z" />
    <glyph glyph-name="Agrave" unicode="&#xc0;" horiz-adv-x="641" 
d="M471 748h-90l-108 119h128zM434 0l-13 154h-240l-79 -154h-156l372 690h186l79 -690h-149zM242 275h170l-23 279h-4z" />
    <glyph glyph-name="Aacute" unicode="&#xc1;" horiz-adv-x="641" 
d="M653 867l-175 -119h-96l133 119h138zM318 690h186l79 -690h-149l-13 154h-240l-79 -154h-156zM242 275h170l-23 279h-4z" />
    <glyph glyph-name="Acircumflex" unicode="&#xc2;" horiz-adv-x="641" 
d="M447 802l-61 -61h-105l137 126h73l78 -126h-95zM434 0l-13 154h-240l-79 -154h-156l372 690h186l79 -690h-149zM242 275h170l-23 279h-4z" />
    <glyph glyph-name="Atilde" unicode="&#xc3;" horiz-adv-x="641" 
d="M390 795q-18 0 -35 -17.5t-26 -48.5l-74 15q30 125 117 125q27 0 45.5 -9t26.5 -20t18.5 -20t23.5 -9q21 0 38 18t25 46l72 -15q-34 -126 -119 -126q-26 0 -44.5 9.5t-27 21t-18.5 21t-22 9.5zM318 690h186l79 -690h-149l-13 154h-240l-79 -154h-156zM242 275h170
l-23 279h-4z" />
    <glyph glyph-name="Adieresis" unicode="&#xc4;" horiz-adv-x="641" 
d="M421 867l-24 -114h-112l25 114h111zM593 867l-25 -114h-111l24 114h112zM318 690h186l79 -690h-149l-13 154h-240l-79 -154h-156zM242 275h170l-23 279h-4z" />
    <glyph glyph-name="Aring" unicode="&#xc5;" horiz-adv-x="641" 
d="M434 0l-13 154h-240l-79 -154h-156l354 656q-21 31 -21 72q0 63 43 112t114 49q60 0 92.5 -35t32.5 -86q0 -74 -52 -121l74 -647h-149zM429 801q-27 0 -43 -18.5t-16 -42.5q0 -19 10.5 -32t30.5 -13q27 0 43.5 19t16.5 43q0 18 -11 31t-31 13zM242 275h170l-23 279h-4z
" />
    <glyph glyph-name="AE" unicode="&#xc6;" horiz-adv-x="868" 
d="M905 555h-306l-30 -142h265l-28 -135h-266l-30 -144h305l-29 -134h-437l31 144h-201l-82 -144h-151l406 690h581zM405 265l67 313h-46l-178 -313h157z" />
    <glyph glyph-name="Ccedilla" unicode="&#xc7;" horiz-adv-x="619" 
d="M282 122q55 0 103.5 36.5t79.5 100.5l121 -69q-96 -181 -271 -198l-47 -50l5 -2q53 -18 53 -77q0 -47 -34.5 -77t-82.5 -30q-40 0 -66.5 22.5t-29.5 54.5l64 17q6 -24 34 -24q18 0 31 13t13 32q0 23 -29 32l-61 16l59 75q-94 16 -139.5 83t-45.5 167q0 121 44.5 225
t130.5 168t194 64q105 0 165.5 -54.5t71.5 -156.5l-139 -42q-3 59 -27 90t-79 31q-98 0 -161 -98.5t-63 -215.5q0 -63 28 -98t78 -35z" />
    <glyph glyph-name="Egrave" unicode="&#xc8;" horiz-adv-x="519" 
d="M333 748l-108 119h128l70 -119h-90zM-1 0l147 690h439l-28 -128h-297l-32 -152h269l-27 -128h-269l-33 -153h297l-27 -129h-439z" />
    <glyph glyph-name="Eacute" unicode="&#xc9;" horiz-adv-x="519" 
d="M334 748l133 119h138l-175 -119h-96zM-1 0l147 690h439l-28 -128h-297l-32 -152h269l-27 -128h-269l-33 -153h297l-27 -129h-439z" />
    <glyph glyph-name="Ecircumflex" unicode="&#xca;" horiz-adv-x="519" 
d="M233 741l137 126h73l78 -126h-95l-27 61l-61 -61h-105zM-1 0l147 690h439l-28 -128h-297l-32 -152h269l-27 -128h-269l-33 -153h297l-27 -129h-439z" />
    <glyph glyph-name="Edieresis" unicode="&#xcb;" horiz-adv-x="519" 
d="M237 753l25 114h111l-24 -114h-112zM409 753l24 114h112l-25 -114h-111zM-1 0l147 690h439l-28 -128h-297l-32 -152h269l-27 -128h-269l-33 -153h297l-27 -129h-439z" />
    <glyph glyph-name="Igrave" unicode="&#xcc;" horiz-adv-x="248" 
d="M182 748l-108 119h128l70 -119h-90zM-1 0l147 690h142l-147 -690h-142z" />
    <glyph glyph-name="Iacute" unicode="&#xcd;" horiz-adv-x="248" 
d="M182 748l133 119h138l-175 -119h-96zM-1 0l147 690h142l-147 -690h-142z" />
    <glyph glyph-name="Icircumflex" unicode="&#xce;" horiz-adv-x="248" 
d="M82 741l137 126h73l78 -126h-95l-27 61l-61 -61h-105zM-1 0l147 690h142l-147 -690h-142z" />
    <glyph glyph-name="Idieresis" unicode="&#xcf;" horiz-adv-x="248" 
d="M85 753l25 114h111l-24 -114h-112zM257 753l24 114h112l-25 -114h-111zM-1 0l147 690h142l-147 -690h-142z" />
    <glyph glyph-name="Eth" unicode="&#xd0;" horiz-adv-x="659" 
d="M335 690q140 0 212.5 -66t72.5 -187q0 -197 -114.5 -317t-307.5 -120h-204l64 300h-66l18 96h68l63 294h194zM204 134q126 0 200 81.5t74 208.5q0 132 -163 132h-60l-35 -160h151l-18 -96h-153l-36 -166h40z" />
    <glyph glyph-name="Ntilde" unicode="&#xd1;" horiz-adv-x="680" 
d="M346 729l-74 15q30 125 117 125q27 0 45.5 -9t26 -20t18.5 -20t24 -9q21 0 38 18t25 46l72 -15q-34 -126 -119 -126q-26 0 -44.5 9.5t-27 21t-18.5 21t-22 9.5q-18 0 -35 -17.5t-26 -48.5zM-1 0l147 690h147l178 -469h6l100 469h142l-146 -690h-150l-176 467h-7l-99 -467
h-142z" />
    <glyph glyph-name="Ograve" unicode="&#xd2;" horiz-adv-x="684" 
d="M399 748l-108 119h128l70 -119h-90zM294 -10q-120 0 -187.5 69.5t-67.5 191.5q0 50 12 107q34 157 134.5 249.5t237.5 92.5q122 0 190.5 -69.5t68.5 -191.5q0 -52 -13 -107q-33 -157 -134 -249.5t-241 -92.5zM300 121q79 0 140.5 64.5t83.5 172.5q9 40 9 74
q0 65 -30.5 101t-85.5 36q-77 0 -137 -64.5t-82 -172.5q-9 -42 -9 -77q0 -63 29 -98.5t82 -35.5z" />
    <glyph glyph-name="Oacute" unicode="&#xd3;" horiz-adv-x="684" 
d="M400 748l133 119h138l-175 -119h-96zM294 -10q-120 0 -187.5 69.5t-67.5 191.5q0 50 12 107q34 157 134.5 249.5t237.5 92.5q122 0 190.5 -69.5t68.5 -191.5q0 -52 -13 -107q-33 -157 -134 -249.5t-241 -92.5zM300 121q79 0 140.5 64.5t83.5 172.5q9 40 9 74
q0 65 -30.5 101t-85.5 36q-77 0 -137 -64.5t-82 -172.5q-9 -42 -9 -77q0 -63 29 -98.5t82 -35.5z" />
    <glyph glyph-name="Ocircumflex" unicode="&#xd4;" horiz-adv-x="684" 
d="M299 741l137 126h73l78 -126h-95l-27 61l-61 -61h-105zM294 -10q-120 0 -187.5 69.5t-67.5 191.5q0 50 12 107q34 157 134.5 249.5t237.5 92.5q122 0 190.5 -69.5t68.5 -191.5q0 -52 -13 -107q-33 -157 -134 -249.5t-241 -92.5zM300 121q79 0 140.5 64.5t83.5 172.5
q9 40 9 74q0 65 -30.5 101t-85.5 36q-77 0 -137 -64.5t-82 -172.5q-9 -42 -9 -77q0 -63 29 -98.5t82 -35.5z" />
    <glyph glyph-name="Otilde" unicode="&#xd5;" horiz-adv-x="684" 
d="M347 729l-74 15q30 125 117 125q27 0 45.5 -9t26.5 -20t18.5 -20t23.5 -9q21 0 38 18t25 46l72 -15q-34 -126 -119 -126q-26 0 -44.5 9.5t-27 21t-18.5 21t-22 9.5q-18 0 -35 -17.5t-26 -48.5zM294 -10q-120 0 -187.5 69.5t-67.5 191.5q0 50 12 107q34 157 134.5 249.5
t237.5 92.5q122 0 190.5 -69.5t68.5 -191.5q0 -52 -13 -107q-33 -157 -134 -249.5t-241 -92.5zM300 121q79 0 140.5 64.5t83.5 172.5q9 40 9 74q0 65 -30.5 101t-85.5 36q-77 0 -137 -64.5t-82 -172.5q-9 -42 -9 -77q0 -63 29 -98.5t82 -35.5z" />
    <glyph glyph-name="Odieresis" unicode="&#xd6;" horiz-adv-x="684" 
d="M303 753l25 114h111l-24 -114h-112zM475 753l24 114h112l-25 -114h-111zM294 -10q-120 0 -187.5 69.5t-67.5 191.5q0 50 12 107q34 157 134.5 249.5t237.5 92.5q122 0 190.5 -69.5t68.5 -191.5q0 -52 -13 -107q-33 -157 -134 -249.5t-241 -92.5zM300 121q79 0 140.5 64.5
t83.5 172.5q9 40 9 74q0 65 -30.5 101t-85.5 36q-77 0 -137 -64.5t-82 -172.5q-9 -42 -9 -77q0 -63 29 -98.5t82 -35.5z" />
    <glyph glyph-name="multiply" unicode="&#xd7;" horiz-adv-x="717" 
d="M491 1l-139 139l-137 -137l-81 80l137 138l-138 138l80 80l138 -139l137 137l81 -80l-137 -137l139 -139z" />
    <glyph glyph-name="Oslash" unicode="&#xd8;" horiz-adv-x="684" 
d="M733 634l-76 -67q25 -56 25 -128q0 -52 -13 -107q-33 -157 -134 -249.5t-241 -92.5q-133 0 -201 84l-72 -63l-37 46l79 69q-24 54 -24 125q0 50 12 107q34 157 134.5 249.5t237.5 92.5q132 0 202 -82l70 62zM189 255q0 -12 1 -18l322 283q-29 49 -95 49q-77 0 -137 -64.5
t-82 -172.5q-9 -42 -9 -77zM533 432q0 18 -1 26l-325 -285q28 -52 93 -52q79 0 140.5 64.5t83.5 172.5q9 40 9 74z" />
    <glyph glyph-name="Ugrave" unicode="&#xd9;" horiz-adv-x="613" 
d="M367 748l-108 119h128l70 -119h-90zM259 -10q-110 0 -165.5 51t-55.5 144q0 40 10 83l89 422h142l-93 -440q-4 -19 -4 -40q0 -82 96 -82q55 0 95 36t52 93l92 433h142l-91 -430q-57 -270 -309 -270z" />
    <glyph glyph-name="Uacute" unicode="&#xda;" horiz-adv-x="613" 
d="M367 748l133 119h138l-175 -119h-96zM259 -10q-110 0 -165.5 51t-55.5 144q0 40 10 83l89 422h142l-93 -440q-4 -19 -4 -40q0 -82 96 -82q55 0 95 36t52 93l92 433h142l-91 -430q-57 -270 -309 -270z" />
    <glyph glyph-name="Ucircumflex" unicode="&#xdb;" horiz-adv-x="613" 
d="M267 741l137 126h73l78 -126h-95l-27 61l-61 -61h-105zM259 -10q-110 0 -165.5 51t-55.5 144q0 40 10 83l89 422h142l-93 -440q-4 -19 -4 -40q0 -82 96 -82q55 0 95 36t52 93l92 433h142l-91 -430q-57 -270 -309 -270z" />
    <glyph glyph-name="Udieresis" unicode="&#xdc;" horiz-adv-x="613" 
d="M270 753l25 114h111l-24 -114h-112zM442 753l24 114h112l-25 -114h-111zM259 -10q-110 0 -165.5 51t-55.5 144q0 40 10 83l89 422h142l-93 -440q-4 -19 -4 -40q0 -82 96 -82q55 0 95 36t52 93l92 433h142l-91 -430q-57 -270 -309 -270z" />
    <glyph glyph-name="Yacute" unicode="&#xdd;" horiz-adv-x="642" 
d="M381 748l133 119h138l-175 -119h-96zM196 0l59 269l-164 421h157l104 -283l222 283h165l-343 -421l-59 -269h-141z" />
    <glyph glyph-name="Thorn" unicode="&#xde;" horiz-adv-x="596" 
d="M-1 0l147 690h142l-18 -84h130q99 0 151.5 -47.5t52.5 -131.5q0 -122 -74 -198t-195 -76h-161l-33 -153h-142zM201 283h134q61 0 96 34.5t35 85.5q0 73 -93 73h-131z" />
    <glyph glyph-name="germandbls" unicode="&#xdf;" horiz-adv-x="654" 
d="M387 -11q-61 0 -115.5 24t-89.5 67l73 83q50 -68 131 -68q37 0 62.5 16.5t25.5 44.5q0 20 -15.5 30.5t-57.5 24.5q-37 12 -56 19.5t-43.5 22.5t-35 37t-10.5 52q0 107 127 141q68 24 81 38q8 8 8 18q0 15 -19 25.5t-57 10.5q-69 0 -116.5 -45t-63.5 -123l-87 -407h-135
l92 435q56 265 318 265q97 0 158 -40t61 -107q0 -93 -99 -124q-5 -1 -31.5 -7.5t-37.5 -10t-29.5 -11.5t-26 -18t-7.5 -23q0 -9 3.5 -15t13.5 -11t18 -7.5t26.5 -8t29.5 -8.5q59 -17 91 -45.5t32 -86.5q0 -90 -62 -139t-157 -49z" />
    <glyph glyph-name="agrave" unicode="&#xe0;" horiz-adv-x="503" 
d="M365 571h-90l-108 119h128zM292 522q87 0 137.5 -34.5t50.5 -104.5q0 -20 -5 -47l-72 -336h-122l11 51q-73 -62 -154 -62q-64 0 -101 31.5t-37 86.5q0 56 31.5 99.5t87.5 67.5q67 30 235 69q2 16 2 21q0 53 -67 53q-82 0 -147 -73l-74 79q88 99 224 99zM191 81
q63 0 121 62l21 101q-87 -20 -134 -44q-67 -32 -67 -73q0 -46 59 -46z" />
    <glyph glyph-name="aacute" unicode="&#xe1;" horiz-adv-x="503" 
d="M546 690l-175 -119h-96l133 119h138zM292 522q87 0 137.5 -34.5t50.5 -104.5q0 -20 -5 -47l-72 -336h-122l11 51q-73 -62 -154 -62q-64 0 -101 31.5t-37 86.5q0 56 31.5 99.5t87.5 67.5q67 30 235 69q2 16 2 21q0 53 -67 53q-82 0 -147 -73l-74 79q88 99 224 99zM191 81
q63 0 121 62l21 101q-87 -20 -134 -44q-67 -32 -67 -73q0 -46 59 -46z" />
    <glyph glyph-name="acircumflex" unicode="&#xe2;" horiz-adv-x="503" 
d="M341 625l-61 -61h-105l137 126h73l78 -126h-95zM292 522q87 0 137.5 -34.5t50.5 -104.5q0 -20 -5 -47l-72 -336h-122l11 51q-73 -62 -154 -62q-64 0 -101 31.5t-37 86.5q0 56 31.5 99.5t87.5 67.5q67 30 235 69q2 16 2 21q0 53 -67 53q-82 0 -147 -73l-74 79
q88 99 224 99zM191 81q63 0 121 62l21 101q-87 -20 -134 -44q-67 -32 -67 -73q0 -46 59 -46z" />
    <glyph glyph-name="atilde" unicode="&#xe3;" horiz-adv-x="503" 
d="M283 618q-18 0 -35 -17.5t-26 -48.5l-74 15q30 125 117 125q27 0 45.5 -9t26 -20t18.5 -20t24 -9q21 0 38 18t25 46l72 -15q-34 -126 -119 -126q-26 0 -44.5 9.5t-27 21t-18.5 21t-22 9.5zM292 522q87 0 137.5 -34.5t50.5 -104.5q0 -20 -5 -47l-72 -336h-122l11 51
q-73 -62 -154 -62q-64 0 -101 31.5t-37 86.5q0 56 31.5 99.5t87.5 67.5q67 30 235 69q2 16 2 21q0 53 -67 53q-82 0 -147 -73l-74 79q88 99 224 99zM191 81q63 0 121 62l21 101q-87 -20 -134 -44q-67 -32 -67 -73q0 -46 59 -46z" />
    <glyph glyph-name="adieresis" unicode="&#xe4;" horiz-adv-x="503" 
d="M314 690l-24 -114h-112l25 114h111zM486 690l-25 -114h-111l24 114h112zM292 522q87 0 137.5 -34.5t50.5 -104.5q0 -20 -5 -47l-72 -336h-122l11 51q-73 -62 -154 -62q-64 0 -101 31.5t-37 86.5q0 56 31.5 99.5t87.5 67.5q67 30 235 69q2 16 2 21q0 53 -67 53
q-82 0 -147 -73l-74 79q88 99 224 99zM191 81q63 0 121 62l21 101q-87 -20 -134 -44q-67 -32 -67 -73q0 -46 59 -46z" />
    <glyph glyph-name="aring" unicode="&#xe5;" horiz-adv-x="503" 
d="M325 546q-46 0 -70.5 27t-24.5 66q0 47 32.5 84.5t86.5 37.5q46 0 70 -26.5t24 -65.5q0 -47 -32.5 -85t-85.5 -38zM344 694q-21 0 -33 -14t-12 -32q0 -14 8 -24t23 -10q20 0 32.5 14.5t12.5 32.5q0 33 -31 33zM292 522q87 0 137.5 -34.5t50.5 -104.5q0 -20 -5 -47
l-72 -336h-122l11 51q-73 -62 -154 -62q-64 0 -101 31.5t-37 86.5q0 56 31.5 99.5t87.5 67.5q67 30 235 69q2 16 2 21q0 53 -67 53q-82 0 -147 -73l-74 79q88 99 224 99zM191 81q63 0 121 62l21 101q-87 -20 -134 -44q-67 -32 -67 -73q0 -46 59 -46z" />
    <glyph glyph-name="ae" unicode="&#xe6;" horiz-adv-x="836" 
d="M790 221h-319q-2 -22 -2 -30q0 -87 85 -87q78 0 137 65l75 -76q-57 -57 -109 -80t-113 -23q-132 0 -185 89q-105 -90 -221 -90q-64 0 -101 31.5t-37 86.5q0 56 31.5 99.5t87.5 67.5q67 30 235 69q2 16 2 21q0 53 -67 53q-82 0 -147 -73l-74 79q88 99 224 99
q117 0 163 -59q73 59 167 59q93 0 142.5 -51.5t49.5 -133.5q0 -61 -24 -116zM617 414q-49 0 -81 -29.5t-45 -73.5h189q5 20 5 35q0 68 -68 68zM190 83q75 0 143 82q-1 7 -1 23q0 32 4 57q-108 -27 -145 -45q-59 -29 -59 -73t58 -44z" />
    <glyph glyph-name="ccedilla" unicode="&#xe7;" horiz-adv-x="511" 
d="M240 105q77 0 119 92l101 -54q-68 -131 -188 -150l-48 -51l5 -2q53 -18 53 -77q0 -47 -34.5 -77t-82.5 -30q-40 0 -66.5 22.5t-29.5 54.5l64 17q6 -24 34 -24q18 0 31 13t13 32q0 23 -29 32l-61 16l58 73q-77 12 -116 65.5t-39 133.5q0 136 82 233.5t208 97.5
q89 0 137.5 -43t56.5 -118l-119 -30q-1 37 -25 56.5t-61 19.5q-65 0 -106.5 -60t-41.5 -134q0 -47 21 -77.5t64 -30.5z" />
    <glyph glyph-name="egrave" unicode="&#xe8;" horiz-adv-x="526" 
d="M374 571h-90l-108 119h128zM483 221h-322q-2 -22 -2 -30q0 -87 85 -87q78 0 137 65l75 -76q-57 -57 -109 -80t-113 -23q-96 0 -154 51.5t-58 146.5q0 136 82 235t208 99q95 0 145 -51t50 -134q0 -61 -24 -116zM307 414q-49 0 -81 -29.5t-45 -73.5h189q5 20 5 35
q0 68 -68 68z" />
    <glyph glyph-name="eacute" unicode="&#xe9;" horiz-adv-x="526" 
d="M556 690l-175 -119h-96l133 119h138zM312 522q95 0 145 -51t50 -134q0 -61 -24 -116h-322q-2 -22 -2 -30q0 -87 85 -87q78 0 137 65l75 -76q-57 -57 -109 -80t-113 -23q-96 0 -154 51.5t-58 146.5q0 136 82 235t208 99zM307 414q-49 0 -81 -29.5t-45 -73.5h189q5 20 5 35
q0 68 -68 68z" />
    <glyph glyph-name="ecircumflex" unicode="&#xea;" horiz-adv-x="526" 
d="M350 625l-61 -61h-105l137 126h73l78 -126h-95zM483 221h-322q-2 -22 -2 -30q0 -87 85 -87q78 0 137 65l75 -76q-57 -57 -109 -80t-113 -23q-96 0 -154 51.5t-58 146.5q0 136 82 235t208 99q95 0 145 -51t50 -134q0 -61 -24 -116zM307 414q-49 0 -81 -29.5t-45 -73.5h189
q5 20 5 35q0 68 -68 68z" />
    <glyph glyph-name="edieresis" unicode="&#xeb;" horiz-adv-x="526" 
d="M324 690l-24 -114h-112l25 114h111zM496 690l-25 -114h-111l24 114h112zM483 221h-322q-2 -22 -2 -30q0 -87 85 -87q78 0 137 65l75 -76q-57 -57 -109 -80t-113 -23q-96 0 -154 51.5t-58 146.5q0 136 82 235t208 99q95 0 145 -51t50 -134q0 -61 -24 -116zM307 414
q-49 0 -81 -29.5t-45 -73.5h189q5 20 5 35q0 68 -68 68z" />
    <glyph glyph-name="igrave" unicode="&#xec;" horiz-adv-x="226" 
d="M135 571l-108 119h128l70 -119h-90zM-9 0l109 512h135l-109 -512h-135z" />
    <glyph glyph-name="iacute" unicode="&#xed;" horiz-adv-x="226" 
d="M136 571l133 119h138l-175 -119h-96zM-9 0l109 512h135l-109 -512h-135z" />
    <glyph glyph-name="icircumflex" unicode="&#xee;" horiz-adv-x="226" 
d="M35 564l137 126h73l78 -126h-95l-27 61l-61 -61h-105zM-9 0l109 512h135l-109 -512h-135z" />
    <glyph glyph-name="idieresis" unicode="&#xef;" horiz-adv-x="226" 
d="M39 576l25 114h111l-24 -114h-112zM211 576l24 114h112l-25 -114h-111zM-9 0l109 512h135l-109 -512h-135z" />
    <glyph glyph-name="eth" unicode="&#xf0;" horiz-adv-x="534" 
d="M379 676q131 -104 131 -296q0 -163 -79.5 -275.5t-214.5 -112.5q-94 0 -144 56.5t-50 145.5q0 124 79.5 221t191.5 97q75 0 117 -54q-19 92 -93 142l-49 -61l-45 33l45 56q-31 13 -56 20l61 90q31 -13 61 -30l53 65l45 -31zM231 112q57 0 94.5 58.5t37.5 128.5
q0 42 -16.5 67.5t-50.5 25.5q-58 0 -96 -58t-38 -127q0 -42 17.5 -68.5t51.5 -26.5z" />
    <glyph glyph-name="ntilde" unicode="&#xf1;" 
d="M243 554l-74 15q30 125 117 125q27 0 45.5 -9t26.5 -20t18.5 -20t23.5 -9q21 0 38 18t25 46l72 -15q-34 -126 -119 -126q-26 0 -44.5 9.5t-27 21t-18.5 21t-22 9.5q-18 0 -35 -17.5t-26 -48.5zM-6 0l109 512h136l-15 -64h4q58 74 155 74q66 0 104 -38.5t38 -101.5
q0 -14 -6 -50l-71 -332h-137l66 308q5 20 5 40q0 55 -65 55q-46 0 -80 -35t-48 -101l-57 -267h-138z" />
    <glyph glyph-name="ograve" unicode="&#xf2;" horiz-adv-x="553" 
d="M299 571l-108 119h128l70 -119h-90zM231 -11q-101 0 -154 62t-53 155q0 76 33.5 147t104 120t161.5 49q100 0 153 -62t53 -155q0 -76 -33.5 -147t-103.5 -120t-161 -49zM245 108q65 0 108.5 62.5t43.5 132.5q0 45 -21.5 73t-65.5 28q-64 0 -107.5 -63t-43.5 -133
q0 -44 21.5 -72t64.5 -28z" />
    <glyph glyph-name="oacute" unicode="&#xf3;" horiz-adv-x="553" 
d="M300 571l133 119h138l-175 -119h-96zM231 -11q-101 0 -154 62t-53 155q0 76 33.5 147t104 120t161.5 49q100 0 153 -62t53 -155q0 -76 -33.5 -147t-103.5 -120t-161 -49zM245 108q65 0 108.5 62.5t43.5 132.5q0 45 -21.5 73t-65.5 28q-64 0 -107.5 -63t-43.5 -133
q0 -44 21.5 -72t64.5 -28z" />
    <glyph glyph-name="ocircumflex" unicode="&#xf4;" horiz-adv-x="553" 
d="M199 564l137 126h73l78 -126h-95l-27 61l-61 -61h-105zM231 -11q-101 0 -154 62t-53 155q0 76 33.5 147t104 120t161.5 49q100 0 153 -62t53 -155q0 -76 -33.5 -147t-103.5 -120t-161 -49zM245 108q65 0 108.5 62.5t43.5 132.5q0 45 -21.5 73t-65.5 28q-64 0 -107.5 -63
t-43.5 -133q0 -44 21.5 -72t64.5 -28z" />
    <glyph glyph-name="otilde" unicode="&#xf5;" horiz-adv-x="553" 
d="M247 552l-74 15q30 125 117 125q27 0 45.5 -9t26.5 -20t18.5 -20t23.5 -9q21 0 38 18t25 46l72 -15q-34 -126 -119 -126q-26 0 -44.5 9.5t-27 21t-18.5 21t-22 9.5q-18 0 -35 -17.5t-26 -48.5zM231 -11q-101 0 -154 62t-53 155q0 76 33.5 147t104 120t161.5 49
q100 0 153 -62t53 -155q0 -76 -33.5 -147t-103.5 -120t-161 -49zM245 108q65 0 108.5 62.5t43.5 132.5q0 45 -21.5 73t-65.5 28q-64 0 -107.5 -63t-43.5 -133q0 -44 21.5 -72t64.5 -28z" />
    <glyph glyph-name="odieresis" unicode="&#xf6;" horiz-adv-x="553" 
d="M203 576l25 114h111l-24 -114h-112zM375 576l24 114h112l-25 -114h-111zM231 -11q-101 0 -154 62t-53 155q0 76 33.5 147t104 120t161.5 49q100 0 153 -62t53 -155q0 -76 -33.5 -147t-103.5 -120t-161 -49zM245 108q65 0 108.5 62.5t43.5 132.5q0 45 -21.5 73t-65.5 28
q-64 0 -107.5 -63t-43.5 -133q0 -44 21.5 -72t64.5 -28z" />
    <glyph glyph-name="divide" unicode="&#xf7;" horiz-adv-x="512" 
d="M191 387v112h128v-112h-128zM40 196v114h430v-114h-430zM191 4v112h128v-112h-128z" />
    <glyph glyph-name="oslash" unicode="&#xf8;" horiz-adv-x="553" 
d="M541 460l-40 -35q28 -52 28 -120q0 -76 -33.5 -147t-103.5 -120t-161 -49q-99 0 -155 63l-37 -32l-27 33l40 35q-28 50 -28 118q0 76 33.5 147t104 120t161.5 49q98 0 154 -63l38 33zM159 208q0 -9 2 -25l217 189q-22 32 -68 32q-64 0 -107.5 -63t-43.5 -133zM397 303
q0 9 -2 29l-218 -191q21 -33 68 -33q65 0 108.5 62.5t43.5 132.5z" />
    <glyph glyph-name="ugrave" unicode="&#xf9;" 
d="M293 571l-108 119h128l70 -119h-90zM164 -10q-66 0 -104 38.5t-38 101.5q0 23 6 50l70 332h138l-66 -308q-5 -20 -5 -40q0 -55 65 -55q46 0 80 35t48 101l57 267h138l-109 -512h-136l14 64h-3q-60 -74 -155 -74z" />
    <glyph glyph-name="uacute" unicode="&#xfa;" 
d="M294 571l133 119h138l-175 -119h-96zM164 -10q-66 0 -104 38.5t-38 101.5q0 23 6 50l70 332h138l-66 -308q-5 -20 -5 -40q0 -55 65 -55q46 0 80 35t48 101l57 267h138l-109 -512h-136l14 64h-3q-60 -74 -155 -74z" />
    <glyph glyph-name="ucircumflex" unicode="&#xfb;" 
d="M193 564l137 126h73l78 -126h-95l-27 61l-61 -61h-105zM164 -10q-66 0 -104 38.5t-38 101.5q0 23 6 50l70 332h138l-66 -308q-5 -20 -5 -40q0 -55 65 -55q46 0 80 35t48 101l57 267h138l-109 -512h-136l14 64h-3q-60 -74 -155 -74z" />
    <glyph glyph-name="udieresis" unicode="&#xfc;" 
d="M197 576l25 114h111l-24 -114h-112zM369 576l24 114h112l-25 -114h-111zM164 -10q-66 0 -104 38.5t-38 101.5q0 23 6 50l70 332h138l-66 -308q-5 -20 -5 -40q0 -55 65 -55q46 0 80 35t48 101l57 267h138l-109 -512h-136l14 64h-3q-60 -74 -155 -74z" />
    <glyph glyph-name="yacute" unicode="&#xfd;" horiz-adv-x="504" 
d="M272 571l133 119h138l-175 -119h-96zM-43 -178l13 115q105 0 156 81l-69 494h143l29 -335h8l164 335h151l-297 -527q-58 -102 -117 -132.5t-181 -30.5z" />
    <glyph glyph-name="thorn" unicode="&#xfe;" horiz-adv-x="574" 
d="M-44 -178l184 868h135l-50 -240h3q56 73 152 73q81 0 126 -54t45 -144q0 -82 -31 -157.5t-92 -126.5t-138 -51q-53 0 -91 24t-50 59h-4l-52 -251h-137zM258 109q67 0 111 63.5t44 133.5q0 44 -20.5 71.5t-63.5 27.5q-65 0 -109.5 -65t-44.5 -139q0 -43 21 -67.5t62 -24.5
z" />
    <glyph glyph-name="ydieresis" unicode="&#xff;" horiz-adv-x="504" 
d="M175 576l25 114h111l-24 -114h-112zM347 576l24 114h112l-25 -114h-111zM-43 -178l13 115q105 0 156 81l-69 494h143l29 -335h8l164 335h151l-297 -527q-58 -102 -117 -132.5t-181 -30.5z" />
    <glyph glyph-name="Amacron" unicode="&#x100;" horiz-adv-x="641" 
d="M570 827l-15 -75h-255l16 75h254zM434 0l-13 154h-240l-79 -154h-156l372 690h186l79 -690h-149zM242 275h170l-23 279h-4z" />
    <glyph glyph-name="amacron" unicode="&#x101;" horiz-adv-x="503" 
d="M463 650l-15 -75h-255l16 75h254zM292 522q87 0 137.5 -34.5t50.5 -104.5q0 -20 -5 -47l-72 -336h-122l11 51q-73 -62 -154 -62q-64 0 -101 31.5t-37 86.5q0 56 31.5 99.5t87.5 67.5q67 30 235 69q2 16 2 21q0 53 -67 53q-82 0 -147 -73l-74 79q88 99 224 99zM191 81
q63 0 121 62l21 101q-87 -20 -134 -44q-67 -32 -67 -73q0 -46 59 -46z" />
    <glyph glyph-name="Abreve" unicode="&#x102;" horiz-adv-x="641" 
d="M421 735q-66 0 -99 37.5t-16 94.5h79q-17 -63 40 -63q53 0 76 63h85q-36 -132 -165 -132zM318 690h186l79 -690h-149l-13 154h-240l-79 -154h-156zM242 275h170l-23 279h-4z" />
    <glyph glyph-name="abreve" unicode="&#x103;" horiz-adv-x="503" 
d="M314 558q-66 0 -99 37.5t-16 94.5h79q-17 -63 40 -63q53 0 76 63h85q-36 -132 -165 -132zM292 522q87 0 137.5 -34.5t50.5 -104.5q0 -20 -5 -47l-72 -336h-122l11 51q-73 -62 -154 -62q-64 0 -101 31.5t-37 86.5q0 56 31.5 99.5t87.5 67.5q67 30 235 69q2 16 2 21
q0 53 -67 53q-82 0 -147 -73l-74 79q88 99 224 99zM191 81q63 0 121 62l21 101q-87 -20 -134 -44q-67 -32 -67 -73q0 -46 59 -46z" />
    <glyph glyph-name="Aogonek" unicode="&#x104;" horiz-adv-x="641" 
d="M471 -145q27 0 58 30l53 -57q-50 -56 -115 -56q-36 0 -60.5 19t-24.5 57q0 81 97 152h-45l-13 154h-240l-79 -154h-156l372 690h186l79 -690h2q-64 -28 -100 -63t-36 -62q0 -20 22 -20zM242 275h170l-23 279h-4z" />
    <glyph glyph-name="aogonek" unicode="&#x105;" horiz-adv-x="503" 
d="M292 522q87 0 137.5 -34.5t50.5 -104.5q0 -20 -5 -47l-72 -336q-64 -28 -100 -63t-36 -62q0 -20 22 -20q27 0 58 30l53 -57q-50 -56 -115 -56q-36 0 -60.5 19t-24.5 57q0 81 97 152h-16l11 51q-73 -62 -154 -62q-64 0 -101 31.5t-37 86.5q0 56 31.5 99.5t87.5 67.5
q67 30 235 69q2 16 2 21q0 53 -67 53q-82 0 -147 -73l-74 79q88 99 224 99zM191 81q63 0 121 62l21 101q-87 -20 -134 -44q-67 -32 -67 -73q0 -46 59 -46z" />
    <glyph glyph-name="Cacute" unicode="&#x106;" horiz-adv-x="619" 
d="M377 748l133 119h138l-175 -119h-96zM278 -10q-121 0 -180 70t-59 184q0 121 44.5 225t130.5 168t194 64q105 0 165.5 -54.5t71.5 -156.5l-139 -42q-3 59 -27 90t-79 31q-98 0 -161 -98.5t-63 -215.5q0 -63 28 -98t78 -35q55 0 103.5 36.5t79.5 100.5l121 -69
q-106 -200 -308 -200z" />
    <glyph glyph-name="cacute" unicode="&#x107;" horiz-adv-x="511" 
d="M280 571l133 119h138l-175 -119h-96zM222 -11q-98 0 -148 55.5t-50 146.5q0 136 82 233.5t208 97.5q89 0 137.5 -43t56.5 -118l-119 -30q-1 37 -25 56.5t-61 19.5q-65 0 -106.5 -60t-41.5 -134q0 -47 21 -77.5t64 -30.5q77 0 119 92l101 -54q-41 -79 -99 -116.5
t-139 -37.5z" />
    <glyph glyph-name="Cdotaccent" unicode="&#x10a;" horiz-adv-x="619" 
d="M354 754l25 113h136l-24 -113h-137zM278 -10q-121 0 -180 70t-59 184q0 121 44.5 225t130.5 168t194 64q105 0 165.5 -54.5t71.5 -156.5l-139 -42q-3 59 -27 90t-79 31q-98 0 -161 -98.5t-63 -215.5q0 -63 28 -98t78 -35q55 0 103.5 36.5t79.5 100.5l121 -69
q-106 -200 -308 -200z" />
    <glyph glyph-name="cdotaccent" unicode="&#x10b;" horiz-adv-x="511" 
d="M257 577l25 113h136l-24 -113h-137zM222 -11q-98 0 -148 55.5t-50 146.5q0 136 82 233.5t208 97.5q89 0 137.5 -43t56.5 -118l-119 -30q-1 37 -25 56.5t-61 19.5q-65 0 -106.5 -60t-41.5 -134q0 -47 21 -77.5t64 -30.5q77 0 119 92l101 -54q-41 -79 -99 -116.5
t-139 -37.5z" />
    <glyph glyph-name="Ccaron" unicode="&#x10c;" horiz-adv-x="619" 
d="M381 741l-78 126h95l29 -61l59 61h105l-137 -126h-73zM278 -10q-121 0 -180 70t-59 184q0 121 44.5 225t130.5 168t194 64q105 0 165.5 -54.5t71.5 -156.5l-139 -42q-3 59 -27 90t-79 31q-98 0 -161 -98.5t-63 -215.5q0 -63 28 -98t78 -35q55 0 103.5 36.5t79.5 100.5
l121 -69q-106 -200 -308 -200z" />
    <glyph glyph-name="ccaron" unicode="&#x10d;" horiz-adv-x="511" 
d="M283 564l-78 126h95l29 -61l59 61h105l-137 -126h-73zM222 -11q-98 0 -148 55.5t-50 146.5q0 136 82 233.5t208 97.5q89 0 137.5 -43t56.5 -118l-119 -30q-1 37 -25 56.5t-61 19.5q-65 0 -106.5 -60t-41.5 -134q0 -47 21 -77.5t64 -30.5q77 0 119 92l101 -54
q-41 -79 -99 -116.5t-139 -37.5z" />
    <glyph glyph-name="Dcaron" unicode="&#x10e;" horiz-adv-x="626" 
d="M326 741l-78 126h95l29 -61l59 61h105l-137 -126h-73zM-1 0l147 690h193q141 0 213 -66t72 -187q0 -197 -114 -317t-308 -120h-203zM169 134h40q125 0 199.5 82t74.5 208q0 132 -164 132h-60z" />
    <glyph glyph-name="dcaron" unicode="&#x10f;" horiz-adv-x="725" 
d="M192 -11q-80 0 -125 54t-45 144q0 82 30.5 157.5t92 126.5t138.5 51q53 0 91 -24t49 -59h5l51 251h138l-146 -690h-135l12 62h-2q-57 -73 -154 -73zM606 362l102 170h-58l33 158h169l-31 -158l-140 -170h-75zM244 107q65 0 109 65t44 139q0 92 -82 92q-67 0 -111.5 -63.5
t-44.5 -133.5q0 -44 21 -71.5t64 -27.5z" />
    <glyph glyph-name="Dcroat" unicode="&#x110;" horiz-adv-x="659" 
d="M335 690q140 0 212.5 -66t72.5 -187q0 -197 -114.5 -317t-307.5 -120h-204l64 300h-66l18 96h68l63 294h194zM204 134q126 0 200 81.5t74 208.5q0 132 -163 132h-60l-35 -160h151l-18 -96h-153l-36 -166h40z" />
    <glyph glyph-name="dcroat" unicode="&#x111;" horiz-adv-x="573" 
d="M673 639l-14 -67h-68l-121 -572h-135l12 62h-1q-59 -73 -154 -73q-80 0 -125 54t-45 144q0 82 30.5 157.5t91.5 126.5t138 51q54 0 91.5 -24t49.5 -59h4l28 133h-88l14 67h87l11 51h137l-11 -51h68zM244 107q65 0 109 65t44 139q0 92 -83 92q-66 0 -110.5 -63.5
t-44.5 -133.5q0 -44 21 -71.5t64 -27.5z" />
    <glyph glyph-name="Emacron" unicode="&#x112;" horiz-adv-x="519" 
d="M252 752l16 75h254l-15 -75h-255zM-1 0l147 690h439l-28 -128h-297l-32 -152h269l-27 -128h-269l-33 -153h297l-27 -129h-439z" />
    <glyph glyph-name="emacron" unicode="&#x113;" horiz-adv-x="526" 
d="M473 650l-15 -75h-255l16 75h254zM483 221h-322q-2 -22 -2 -30q0 -87 85 -87q78 0 137 65l75 -76q-57 -57 -109 -80t-113 -23q-96 0 -154 51.5t-58 146.5q0 136 82 235t208 99q95 0 145 -51t50 -134q0 -61 -24 -116zM307 414q-49 0 -81 -29.5t-45 -73.5h189q5 20 5 35
q0 68 -68 68z" />
    <glyph glyph-name="Edotaccent" unicode="&#x116;" horiz-adv-x="519" 
d="M310 754l25 113h136l-24 -113h-137zM-1 0l147 690h439l-28 -128h-297l-32 -152h269l-27 -128h-269l-33 -153h297l-27 -129h-439z" />
    <glyph glyph-name="edotaccent" unicode="&#x117;" horiz-adv-x="526" 
d="M423 690l-24 -113h-137l25 113h136zM483 221h-322q-2 -22 -2 -30q0 -87 85 -87q78 0 137 65l75 -76q-57 -57 -109 -80t-113 -23q-96 0 -154 51.5t-58 146.5q0 136 82 235t208 99q95 0 145 -51t50 -134q0 -61 -24 -116zM307 414q-49 0 -81 -29.5t-45 -73.5h189q5 20 5 35
q0 68 -68 68z" />
    <glyph glyph-name="Eogonek" unicode="&#x118;" horiz-adv-x="519" 
d="M557 562h-297l-32 -152h269l-27 -128h-269l-33 -153h297l-27 -129q-64 -28 -100 -63t-36 -62q0 -20 22 -20q26 0 58 30l53 -57q-50 -56 -115 -56q-36 0 -60.5 19t-24.5 57q0 81 97 152h-333l147 690h439z" />
    <glyph glyph-name="eogonek" unicode="&#x119;" horiz-adv-x="526" 
d="M483 221h-322q-2 -22 -2 -30q0 -87 85 -87q78 0 137 65l75 -76q-33 -33 -68 -57q-25 -17 -54 -28q-82 -52 -82 -97q0 -20 22 -20q26 0 58 30l53 -57q-50 -56 -115 -56q-36 0 -60.5 19t-24.5 57q0 55 46 106q-95 1 -152 52.5t-57 145.5q0 136 82 235t208 99q95 0 145 -51
t50 -134q0 -61 -24 -116zM307 414q-49 0 -81 -29.5t-45 -73.5h189q5 20 5 35q0 68 -68 68z" />
    <glyph glyph-name="Ecaron" unicode="&#x11a;" horiz-adv-x="519" 
d="M337 741l-78 126h95l29 -61l59 61h105l-137 -126h-73zM-1 0l147 690h439l-28 -128h-297l-32 -152h269l-27 -128h-269l-33 -153h297l-27 -129h-439z" />
    <glyph glyph-name="ecaron" unicode="&#x11b;" horiz-adv-x="526" 
d="M361 564h-73l-78 126h95l29 -61l59 61h105zM483 221h-322q-2 -22 -2 -30q0 -87 85 -87q78 0 137 65l75 -76q-57 -57 -109 -80t-113 -23q-96 0 -154 51.5t-58 146.5q0 136 82 235t208 99q95 0 145 -51t50 -134q0 -61 -24 -116zM307 414q-49 0 -81 -29.5t-45 -73.5h189
q5 20 5 35q0 68 -68 68z" />
    <glyph glyph-name="Gbreve" unicode="&#x11e;" horiz-adv-x="667" 
d="M436 735q-66 0 -99 37.5t-16 94.5h79q-17 -63 40 -63q53 0 76 63h85q-36 -132 -165 -132zM362 265l26 121h266l-82 -386h-112l12 78q-38 -43 -92 -65.5t-111 -22.5q-112 0 -171 72.5t-59 189.5q0 120 48.5 222t139 164.5t203.5 62.5q106 0 168 -56t72 -143l-126 -29
q-17 101 -123 101t-174.5 -96.5t-68.5 -220.5q0 -135 125 -135q73 0 127 41.5t71 101.5h-139z" />
    <glyph glyph-name="gbreve" unicode="&#x11f;" horiz-adv-x="572" 
d="M344 558q-66 0 -99 37.5t-16 94.5h79q-17 -63 40 -63q53 0 76 63h85q-36 -132 -165 -132zM206 -188q-167 0 -232 98l74 80q41 -70 139 -70q53 0 94 29.5t56 82.5l13 48q-50 -64 -150 -64q-80 0 -127.5 51t-47.5 139q0 77 30.5 148.5t91.5 119.5t138 48q52 0 89 -23
t50 -57l1 5l14 65h137l-103 -486q-13 -61 -41.5 -105t-67 -66.5t-77.5 -32.5t-81 -10zM250 124q63 0 106 63t43 134q0 88 -80 88q-65 0 -108 -61t-43 -129q0 -42 20.5 -68.5t61.5 -26.5z" />
    <glyph glyph-name="Gdotaccent" unicode="&#x120;" horiz-adv-x="667" 
d="M534 867l-24 -113h-137l25 113h136zM362 265l26 121h266l-82 -386h-112l12 78q-38 -43 -92 -65.5t-111 -22.5q-112 0 -171 72.5t-59 189.5q0 120 48.5 222t139 164.5t203.5 62.5q106 0 168 -56t72 -143l-126 -29q-17 101 -123 101t-174.5 -96.5t-68.5 -220.5
q0 -135 125 -135q73 0 127 41.5t71 101.5h-139z" />
    <glyph glyph-name="gdotaccent" unicode="&#x121;" horiz-adv-x="572" 
d="M281 577l25 113h136l-24 -113h-137zM206 -188q-167 0 -232 98l74 80q41 -70 139 -70q53 0 94 29.5t56 82.5l13 48q-50 -64 -150 -64q-80 0 -127.5 51t-47.5 139q0 77 30.5 148.5t91.5 119.5t138 48q52 0 89 -23t50 -57l1 5l14 65h137l-103 -486q-13 -61 -41.5 -105
t-67 -66.5t-77.5 -32.5t-81 -10zM250 124q63 0 106 63t43 134q0 88 -80 88q-65 0 -108 -61t-43 -129q0 -42 20.5 -68.5t61.5 -26.5z" />
    <glyph glyph-name="uni0122" unicode="&#x122;" horiz-adv-x="667" 
d="M362 265l26 121h266l-82 -386h-112l12 78q-38 -43 -92 -65.5t-111 -22.5q-112 0 -171 72.5t-59 189.5q0 120 48.5 222t139 164.5t203.5 62.5q106 0 168 -56t72 -143l-126 -29q-17 101 -123 101t-174.5 -96.5t-68.5 -220.5q0 -135 125 -135q73 0 127 41.5t71 101.5h-139z
M114 -213l103 148h132l-158 -148h-77z" />
    <glyph glyph-name="uni0123" unicode="&#x123;" horiz-adv-x="572" 
d="M489 690l-103 -132h-132l158 132h77zM206 -188q-167 0 -232 98l74 80q41 -70 139 -70q53 0 94 29.5t56 82.5l13 48q-50 -64 -150 -64q-80 0 -127.5 51t-47.5 139q0 77 30.5 148.5t91.5 119.5t138 48q52 0 89 -23t50 -57l1 5l14 65h137l-103 -486q-13 -61 -41.5 -105
t-67 -66.5t-77.5 -32.5t-81 -10zM250 124q63 0 106 63t43 134q0 88 -80 88q-65 0 -108 -61t-43 -129q0 -42 20.5 -68.5t61.5 -26.5z" />
    <glyph glyph-name="Hbar" unicode="&#x126;" horiz-adv-x="649" 
d="M703 587l-22 -86h-33l-107 -501h-142l59 278h-258l-59 -278h-142l107 501h-38l22 86h34l22 103h142l-22 -103h258l22 103h142l-22 -103h37zM487 413l19 88h-259l-19 -88h259z" />
    <glyph glyph-name="hbar" unicode="&#x127;" 
d="M383 522q69 0 105.5 -38t36.5 -101q0 -15 -6 -51l-71 -332h-137l68 319q4 16 4 32q0 54 -55 54q-48 0 -86 -32t-47 -76l-63 -297h-138l121 567h-55l14 67h55l12 56h137l-12 -56h100l-14 -67h-99l-24 -114q60 69 154 69z" />
    <glyph glyph-name="Itilde" unicode="&#x128;" horiz-adv-x="248" 
d="M129 729l-74 15q30 125 117 125q27 0 45.5 -9t26.5 -20t18.5 -20t23.5 -9q21 0 38 18t25 46l72 -15q-34 -126 -119 -126q-26 0 -44.5 9.5t-27 21t-18.5 21t-22 9.5q-18 0 -35 -17.5t-26 -48.5zM-1 0l147 690h142l-147 -690h-142z" />
    <glyph glyph-name="itilde" unicode="&#x129;" horiz-adv-x="226" 
d="M83 552l-74 15q30 125 117 125q27 0 45.5 -9t26.5 -20t18.5 -20t23.5 -9q21 0 38 18t25 46l72 -15q-34 -126 -119 -126q-26 0 -44.5 9.5t-27 21t-18.5 21t-22 9.5q-18 0 -35 -17.5t-26 -48.5zM-9 0l109 512h135l-109 -512h-135z" />
    <glyph glyph-name="Imacron" unicode="&#x12a;" horiz-adv-x="248" 
d="M100 752l16 75h254l-15 -75h-255zM-1 0l147 690h142l-147 -690h-142z" />
    <glyph glyph-name="imacron" unicode="&#x12b;" horiz-adv-x="226" 
d="M54 575l16 75h254l-15 -75h-255zM-9 0l109 512h135l-109 -512h-135z" />
    <glyph glyph-name="Iogonek" unicode="&#x12e;" horiz-adv-x="248" 
d="M141 0q-64 -28 -100 -63t-36 -62q0 -20 22 -20q27 0 58 30l53 -57q-50 -56 -115 -56q-36 0 -60.5 19t-24.5 57q0 81 97 152h-36l147 690h142z" />
    <glyph glyph-name="iogonek" unicode="&#x12f;" horiz-adv-x="226" 
d="M138 690h136l-24 -113h-137zM-9 0l109 512h135l-109 -512q-64 -28 -100 -63t-36 -62q0 -20 22 -20q26 0 58 30l53 -57q-50 -56 -115 -56q-36 0 -60.5 19t-24.5 57q0 81 97 152h-29z" />
    <glyph glyph-name="Idotaccent" unicode="&#x130;" horiz-adv-x="248" 
d="M159 754l25 113h136l-24 -113h-137zM-1 0l147 690h142l-147 -690h-142z" />
    <glyph glyph-name="dotlessi" unicode="&#x131;" horiz-adv-x="226" 
d="M-9 0l109 512h135l-109 -512h-135z" />
    <glyph glyph-name="uni0136" unicode="&#x136;" horiz-adv-x="650" 
d="M726 690l-327 -302l192 -388h-160l-135 292l-116 -107l-39 -185h-142l147 690h142l-67 -314l319 314h186zM107 -213l103 148h132l-158 -148h-77z" />
    <glyph glyph-name="uni0137" unicode="&#x137;" horiz-adv-x="556" 
d="M588 512l-236 -202l139 -310h-146l-90 226l-92 -78l-31 -148h-138l147 690h137l-77 -366l215 188h172zM59 -213l103 148h132l-158 -148h-77z" />
    <glyph glyph-name="kgreenlandic" unicode="&#x138;" horiz-adv-x="546" 
d="M578 512l-231 -202l134 -310h-159l-83 217l-78 -69l-32 -148h-135l109 512h135l-40 -189l208 189h172z" />
    <glyph glyph-name="Lacute" unicode="&#x139;" horiz-adv-x="478" 
d="M181 749l133 119h138l-175 -119h-96zM-1 0l147 690h142l-120 -562h277l-27 -128h-419z" />
    <glyph glyph-name="lacute" unicode="&#x13a;" horiz-adv-x="236" 
d="M178 749l133 119h138l-175 -119h-96zM-6 0l147 690h137l-146 -690h-138z" />
    <glyph glyph-name="uni013B" unicode="&#x13b;" horiz-adv-x="478" 
d="M-1 0l147 690h142l-120 -562h277l-27 -128h-419zM50 -213l103 148h132l-158 -148h-77z" />
    <glyph glyph-name="uni013C" unicode="&#x13c;" horiz-adv-x="236" 
d="M-6 0l147 690h137l-146 -690h-138zM-100 -213l103 148h132l-158 -148h-77z" />
    <glyph glyph-name="Lcaron" unicode="&#x13d;" horiz-adv-x="478" 
d="M-1 0l147 690h142l-120 -562h277l-27 -128h-419zM328 362l102 170h-58l34 158h169l-32 -158l-140 -170h-75z" />
    <glyph glyph-name="lcaron" unicode="&#x13e;" horiz-adv-x="378" 
d="M-6 0l147 690h137l-146 -690h-138zM260 362l101 170h-57l33 158h169l-32 -158l-140 -170h-74z" />
    <glyph glyph-name="Lslash" unicode="&#x141;" horiz-adv-x="478" 
d="M168 128h277l-27 -128h-419l51 239l-61 -37l32 136l57 35l68 317h142l-47 -219l119 72l-30 -132l-117 -72z" />
    <glyph glyph-name="lslash" unicode="&#x142;" horiz-adv-x="236" 
d="M309 510l-31 -112l-71 -42l-75 -356h-138l56 261l-76 -45l32 115l67 40l68 319h137l-48 -227z" />
    <glyph glyph-name="Nacute" unicode="&#x143;" horiz-adv-x="680" 
d="M399 748l133 119h138l-175 -119h-96zM-1 0l147 690h147l178 -469h6l100 469h142l-146 -690h-150l-176 467h-7l-99 -467h-142z" />
    <glyph glyph-name="nacute" unicode="&#x144;" 
d="M296 573l133 119h138l-175 -119h-96zM-6 0l109 512h136l-15 -64h4q58 74 155 74q66 0 104 -38.5t38 -101.5q0 -14 -6 -50l-71 -332h-137l66 308q5 20 5 40q0 55 -65 55q-46 0 -80 -35t-48 -101l-57 -267h-138z" />
    <glyph glyph-name="uni0145" unicode="&#x145;" horiz-adv-x="680" 
d="M-1 0l147 690h147l178 -469h6l100 469h142l-146 -690h-150l-176 467h-7l-99 -467h-142zM121 -213l103 148h132l-158 -148h-77z" />
    <glyph glyph-name="uni0146" unicode="&#x146;" 
d="M-6 0l109 512h136l-15 -64h4q58 74 155 74q66 0 104 -38.5t38 -101.5q0 -14 -6 -50l-71 -332h-137l66 308q5 20 5 40q0 55 -65 55q-46 0 -80 -35t-48 -101l-57 -267h-138zM58 -213l103 148h132l-158 -148h-77z" />
    <glyph glyph-name="Ncaron" unicode="&#x147;" horiz-adv-x="680" 
d="M403 741l-78 126h95l29 -61l59 61h105l-137 -126h-73zM-1 0l147 690h147l178 -469h6l100 469h142l-146 -690h-150l-176 467h-7l-99 -467h-142z" />
    <glyph glyph-name="ncaron" unicode="&#x148;" 
d="M300 566l-78 126h95l29 -61l59 61h105l-137 -126h-73zM-6 0l109 512h136l-15 -64h4q58 74 155 74q66 0 104 -38.5t38 -101.5q0 -14 -6 -50l-71 -332h-137l66 308q5 20 5 40q0 55 -65 55q-46 0 -80 -35t-48 -101l-57 -267h-138z" />
    <glyph glyph-name="Eng" unicode="&#x14a;" horiz-adv-x="681" 
d="M577 690h143l-147 -690q-17 -79 -59 -110t-129 -31h-58l15 72h23q27 0 45 21t25 48h-12l-176 467h-6l-100 -467h-142l147 690h148l177 -469h7z" />
    <glyph glyph-name="eng" unicode="&#x14b;" horiz-adv-x="538" 
d="M185 -141l20 95h37q29 0 47 21t23 45l59 278q5 22 5 36q0 61 -58 61q-48 0 -87.5 -43t-56.5 -124l-48 -228h-132l109 512h125l-19 -78l8 6q58 80 152 80q74 0 108.5 -43t34.5 -109q0 -20 -6 -58l-64 -299q-4 -20 -5.5 -26t-9 -26.5t-14.5 -30t-22 -25.5t-32.5 -23.5
t-45 -14t-60.5 -6.5h-68z" />
    <glyph glyph-name="Omacron" unicode="&#x14c;" horiz-adv-x="684" 
d="M318 752l16 75h254l-15 -75h-255zM294 -10q-120 0 -187.5 69.5t-67.5 191.5q0 50 12 107q34 157 134.5 249.5t237.5 92.5q122 0 190.5 -69.5t68.5 -191.5q0 -52 -13 -107q-33 -157 -134 -249.5t-241 -92.5zM300 121q79 0 140.5 64.5t83.5 172.5q9 40 9 74q0 65 -30.5 101
t-85.5 36q-77 0 -137 -64.5t-82 -172.5q-9 -42 -9 -77q0 -63 29 -98.5t82 -35.5z" />
    <glyph glyph-name="omacron" unicode="&#x14d;" horiz-adv-x="553" 
d="M218 575l16 75h254l-15 -75h-255zM231 -11q-101 0 -154 62t-53 155q0 76 33.5 147t104 120t161.5 49q100 0 153 -62t53 -155q0 -76 -33.5 -147t-103.5 -120t-161 -49zM245 108q65 0 108.5 62.5t43.5 132.5q0 45 -21.5 73t-65.5 28q-64 0 -107.5 -63t-43.5 -133
q0 -44 21.5 -72t64.5 -28z" />
    <glyph glyph-name="Ohungarumlaut" unicode="&#x150;" horiz-adv-x="684" 
d="M304 753l122 114h112l-135 -114h-99zM472 753l123 114h128l-153 -114h-98zM294 -10q-120 0 -187.5 69.5t-67.5 191.5q0 50 12 107q34 157 134.5 249.5t237.5 92.5q122 0 190.5 -69.5t68.5 -191.5q0 -52 -13 -107q-33 -157 -134 -249.5t-241 -92.5zM300 121
q79 0 140.5 64.5t83.5 172.5q9 40 9 74q0 65 -30.5 101t-85.5 36q-77 0 -137 -64.5t-82 -172.5q-9 -42 -9 -77q0 -63 29 -98.5t82 -35.5z" />
    <glyph glyph-name="ohungarumlaut" unicode="&#x151;" horiz-adv-x="553" 
d="M204 576l122 114h112l-135 -114h-99zM372 576l123 114h128l-153 -114h-98zM231 -11q-101 0 -154 62t-53 155q0 76 33.5 147t104 120t161.5 49q100 0 153 -62t53 -155q0 -76 -33.5 -147t-103.5 -120t-161 -49zM245 108q65 0 108.5 62.5t43.5 132.5q0 45 -21.5 73t-65.5 28
q-64 0 -107.5 -63t-43.5 -133q0 -44 21.5 -72t64.5 -28z" />
    <glyph glyph-name="OE" unicode="&#x152;" horiz-adv-x="960" 
d="M998 562h-280l-33 -152h255l-28 -128h-253l-33 -153h280l-27 -129h-386l12 58q-93 -68 -211 -68q-146 0 -212 100t-31 268q34 157 134.5 249.5t238.5 92.5q131 0 200 -81l15 71h387zM301 121q78 0 139.5 64.5t84.5 172.5q20 98 -9 154.5t-99 56.5q-77 0 -137 -64.5
t-83 -172.5q-20 -98 7.5 -154.5t96.5 -56.5z" />
    <glyph glyph-name="oe" unicode="&#x153;" horiz-adv-x="892" 
d="M849 221h-322q-2 -22 -2 -30q0 -87 86 -87q79 0 136 65l76 -76q-56 -56 -109 -79.5t-113 -23.5q-119 0 -176 74q-80 -75 -194 -75q-101 0 -154 62t-53 155q0 76 33.5 147t104 120t161.5 49q112 0 166 -79q79 79 189 79q95 0 145.5 -51.5t50.5 -133.5q0 -58 -25 -116z
M674 414q-50 0 -81.5 -29.5t-44.5 -73.5h188q5 20 5 35q0 31 -16.5 49.5t-50.5 18.5zM245 108q65 0 108.5 62.5t43.5 132.5q0 45 -21.5 73t-65.5 28q-64 0 -107.5 -63t-43.5 -133q0 -44 21.5 -72t64.5 -28z" />
    <glyph glyph-name="Racute" unicode="&#x154;" horiz-adv-x="641" 
d="M342 748l133 119h138l-175 -119h-96zM-1 -1l147 691h302q88 0 136.5 -43t48.5 -121t-42 -138t-118 -91l85 -298h-152l-68 279h-140l-59 -279h-140zM224 396h157q54 1 84.5 32t30.5 75q0 60 -77 60h-159z" />
    <glyph glyph-name="racute" unicode="&#x155;" horiz-adv-x="360" 
d="M222 571l133 119h138l-175 -119h-96zM-6 0l109 512h133l-14 -69h2q52 77 121 77q27 0 52 -11l-25 -118q-33 -3 -39 -4q-60 -10 -99.5 -55t-54.5 -114l-47 -218h-138z" />
    <glyph glyph-name="uni0156" unicode="&#x156;" horiz-adv-x="641" 
d="M-1 -1l147 691h302q88 0 136.5 -43t48.5 -121t-42 -138t-118 -91l85 -298h-152l-68 279h-140l-59 -279h-140zM224 396h157q54 1 84.5 32t30.5 75q0 60 -77 60h-159zM76 -213l103 148h132l-158 -148h-77z" />
    <glyph glyph-name="uni0157" unicode="&#x157;" horiz-adv-x="360" 
d="M-6 0l109 512h133l-14 -69h2q52 77 121 77q27 0 52 -11l-25 -118q-33 -3 -39 -4q-60 -10 -99.5 -55t-54.5 -114l-47 -218h-138zM-100 -213l103 148h132l-158 -148h-77z" />
    <glyph glyph-name="Rcaron" unicode="&#x158;" horiz-adv-x="641" 
d="M346 741l-78 126h95l29 -61l59 61h105l-137 -126h-73zM-1 -1l147 691h302q88 0 136.5 -43t48.5 -121t-42 -138t-118 -91l85 -298h-152l-68 279h-140l-59 -279h-140zM224 396h157q54 1 84.5 32t30.5 75q0 60 -77 60h-159z" />
    <glyph glyph-name="rcaron" unicode="&#x159;" horiz-adv-x="360" 
d="M225 564l-78 126h95l29 -61l59 61h105l-137 -126h-73zM-6 0l109 512h133l-14 -69h2q52 77 121 77q27 0 52 -11l-25 -118q-33 -3 -39 -4q-60 -10 -99.5 -55t-54.5 -114l-47 -218h-138z" />
    <glyph glyph-name="Sacute" unicode="&#x15a;" horiz-adv-x="542" 
d="M327 748l133 119h138l-175 -119h-96zM239 -8q-86 0 -148 45t-90 129l113 73q37 -118 137 -118q51 0 84 27t33 68q0 33 -20.5 50t-69.5 38q-2 1 -3.5 1.5t-4 1.5t-4.5 2q-85 34 -114 57q-49 39 -49 105q0 102 72.5 165.5t183.5 63.5q129 0 203 -110l-92 -83
q-41 73 -121 73q-42 0 -72.5 -22t-30.5 -52q0 -26 19 -40t69 -34q33 -12 50.5 -19.5t45 -23.5t42 -32.5t26 -43t11.5 -59.5q0 -112 -77.5 -187t-192.5 -75z" />
    <glyph glyph-name="sacute" unicode="&#x15b;" horiz-adv-x="470" 
d="M250 571l133 119h138l-175 -119h-96zM200 -11q-63 0 -120.5 24t-93.5 67l73 83q48 -69 138 -69q35 0 63 16t28 44q0 22 -18.5 33.5t-60.5 23.5q-32 8 -53.5 16t-44.5 22t-35 37.5t-12 54.5q0 87 59 134t154 47q119 0 189 -78l-66 -81q-47 58 -125 58q-33 0 -57 -14
t-24 -38q0 -7 2.5 -12.5t9 -10.5t11.5 -8t16.5 -7.5t17.5 -6.5t21 -6t20 -6q61 -18 95.5 -47.5t34.5 -86.5q0 -89 -60.5 -139t-161.5 -50z" />
    <glyph glyph-name="Scedilla" unicode="&#x15e;" horiz-adv-x="542" 
d="M334 432q33 -12 50.5 -19.5t45 -23.5t42 -32.5t26 -43t11.5 -59.5q0 -107 -72 -181.5t-181 -80.5l-47 -49l5 -2q53 -18 53 -77q0 -47 -34.5 -77t-82.5 -30q-40 0 -66.5 22.5t-29.5 54.5l64 17q6 -24 34 -24q18 0 31 13t13 32q0 23 -29 32l-61 16l63 80q-123 33 -168 166
l113 73q37 -118 137 -118q51 0 84 27t33 68q0 33 -20.5 50t-69.5 38q-2 1 -3.5 1.5t-4 1.5t-4.5 2q-85 34 -114 57q-49 39 -49 105q0 102 72.5 165.5t183.5 63.5q129 0 203 -110l-92 -83q-41 73 -121 73q-42 0 -72.5 -22t-30.5 -52q0 -26 19 -40t69 -34z" />
    <glyph glyph-name="scedilla" unicode="&#x15f;" horiz-adv-x="470" 
d="M292 312q61 -18 95.5 -47.5t34.5 -86.5q0 -79 -49 -128t-132 -59l-47 -49l5 -2q53 -18 53 -77q0 -47 -34.5 -77t-82.5 -30q-40 0 -66.5 22.5t-29.5 54.5l64 17q6 -24 34 -24q18 0 31 13t13 32q0 23 -29 32l-61 16l58 74q-104 18 -163 87l73 83q48 -69 138 -69q35 0 63 16
t28 44q0 22 -18.5 33.5t-60.5 23.5q-32 8 -53.5 16t-44.5 22t-35 37.5t-12 54.5q0 87 59 134t154 47q119 0 189 -78l-66 -81q-47 58 -125 58q-33 0 -57 -14t-24 -38q0 -7 2.5 -12.5t9 -10.5t11.5 -8t16.5 -7.5t17.5 -6.5t21 -6t20 -6z" />
    <glyph glyph-name="Scaron" unicode="&#x160;" horiz-adv-x="542" 
d="M331 741l-78 126h95l29 -61l59 61h105l-137 -126h-73zM239 -8q-86 0 -148 45t-90 129l113 73q37 -118 137 -118q51 0 84 27t33 68q0 33 -20.5 50t-69.5 38q-2 1 -3.5 1.5t-4 1.5t-4.5 2q-85 34 -114 57q-49 39 -49 105q0 102 72.5 165.5t183.5 63.5q129 0 203 -110
l-92 -83q-41 73 -121 73q-42 0 -72.5 -22t-30.5 -52q0 -26 19 -40t69 -34q33 -12 50.5 -19.5t45 -23.5t42 -32.5t26 -43t11.5 -59.5q0 -112 -77.5 -187t-192.5 -75z" />
    <glyph glyph-name="scaron" unicode="&#x161;" horiz-adv-x="470" 
d="M253 564l-78 126h95l29 -61l59 61h105l-137 -126h-73zM200 -11q-63 0 -120.5 24t-93.5 67l73 83q48 -69 138 -69q35 0 63 16t28 44q0 22 -18.5 33.5t-60.5 23.5q-32 8 -53.5 16t-44.5 22t-35 37.5t-12 54.5q0 87 59 134t154 47q119 0 189 -78l-66 -81q-47 58 -125 58
q-33 0 -57 -14t-24 -38q0 -7 2.5 -12.5t9 -10.5t11.5 -8t16.5 -7.5t17.5 -6.5t21 -6t20 -6q61 -18 95.5 -47.5t34.5 -86.5q0 -89 -60.5 -139t-161.5 -50z" />
    <glyph glyph-name="uni0162" unicode="&#x162;" horiz-adv-x="540" 
d="M97 690h530l-27 -128h-194l-120 -562h-26l-55 -58l5 -2q53 -18 53 -77q0 -47 -34.5 -77t-82.5 -30q-40 0 -66.5 22.5t-29.5 54.5l64 17q6 -24 34 -24q18 0 31 13t13 32q0 23 -29 32l-61 16l64 81h-22l119 562h-193z" />
    <glyph glyph-name="uni0163" unicode="&#x163;" horiz-adv-x="347" 
d="M254 425l-56 -265q-3 -16 -3 -25q0 -12 7 -16.5t23 -4.5h68l-25 -114h-53l-55 -58l5 -2q53 -18 53 -77q0 -47 -34.5 -77t-82.5 -30q-40 0 -66.5 22.5t-29.5 54.5l64 17q6 -24 34 -24q18 0 31 13t13 32q0 23 -29 32l-61 16l65 83q-34 7 -52.5 32t-18.5 63q0 16 5 39
l62 289h-67l19 87h66l38 178h137l-38 -178h104l-18 -87h-105z" />
    <glyph glyph-name="Tcaron" unicode="&#x164;" horiz-adv-x="540" 
d="M331 741l-78 126h95l29 -61l59 61h105l-137 -126h-73zM144 0l119 562h-193l27 128h530l-27 -128h-194l-120 -562h-142z" />
    <glyph glyph-name="tcaron" unicode="&#x165;" horiz-adv-x="421" 
d="M336 577l92 154h-52l30 143h154l-29 -143l-127 -154h-68zM146 0q-45 0 -70 26t-25 71q0 16 5 39l62 289h-67l19 87h66l38 178h137l-38 -178h104l-18 -87h-105l-56 -265q-3 -16 -3 -25q0 -12 7 -16.5t23 -4.5h68l-25 -114h-122z" />
    <glyph glyph-name="Tbar" unicode="&#x166;" horiz-adv-x="540" 
d="M600 562h-194l-39 -184h73l-14 -67h-74l-66 -311h-142l66 311h-76l14 67h76l39 184h-193l27 128h530z" />
    <glyph glyph-name="tbar" unicode="&#x167;" horiz-adv-x="347" 
d="M359 425h-105l-29 -136h85l-13 -67h-86l-13 -62q-3 -16 -3 -25q0 -12 7 -16.5t23 -4.5h68l-25 -114h-122q-45 0 -70 26t-25 71q0 16 5 39l18 86h-57l14 67h58l29 136h-67l19 87h66l38 178h137l-38 -178h104z" />
    <glyph glyph-name="Utilde" unicode="&#x168;" horiz-adv-x="613" 
d="M314 729l-74 15q30 125 117 125q27 0 45.5 -9t26 -20t18.5 -20t24 -9q21 0 38 18t25 46l72 -15q-34 -126 -119 -126q-26 0 -44.5 9.5t-27 21t-18.5 21t-22 9.5q-18 0 -35 -17.5t-26 -48.5zM259 -10q-110 0 -165.5 51t-55.5 144q0 40 10 83l89 422h142l-93 -440
q-4 -19 -4 -40q0 -82 96 -82q55 0 95 36t52 93l92 433h142l-91 -430q-57 -270 -309 -270z" />
    <glyph glyph-name="utilde" unicode="&#x169;" 
d="M241 552l-74 15q30 125 117 125q27 0 45.5 -9t26.5 -20t18.5 -20t23.5 -9q21 0 38 18t25 46l72 -15q-34 -126 -119 -126q-26 0 -44.5 9.5t-27 21t-18.5 21t-22 9.5q-18 0 -35 -17.5t-26 -48.5zM164 -10q-66 0 -104 38.5t-38 101.5q0 23 6 50l70 332h138l-66 -308
q-5 -20 -5 -40q0 -55 65 -55q46 0 80 35t48 101l57 267h138l-109 -512h-136l14 64h-3q-60 -74 -155 -74z" />
    <glyph glyph-name="Umacron" unicode="&#x16a;" horiz-adv-x="613" 
d="M285 752l16 75h254l-15 -75h-255zM259 -10q-110 0 -165.5 51t-55.5 144q0 40 10 83l89 422h142l-93 -440q-4 -19 -4 -40q0 -82 96 -82q55 0 95 36t52 93l92 433h142l-91 -430q-57 -270 -309 -270z" />
    <glyph glyph-name="umacron" unicode="&#x16b;" 
d="M212 575l16 75h254l-15 -75h-255zM164 -10q-66 0 -104 38.5t-38 101.5q0 23 6 50l70 332h138l-66 -308q-5 -20 -5 -40q0 -55 65 -55q46 0 80 35t48 101l57 267h138l-109 -512h-136l14 64h-3q-60 -74 -155 -74z" />
    <glyph glyph-name="Uring" unicode="&#x16e;" horiz-adv-x="613" 
d="M417 723q-46 0 -70.5 27t-24.5 66q0 47 32.5 84.5t86.5 37.5q46 0 70 -26.5t24 -65.5q0 -47 -32.5 -85t-85.5 -38zM422 791q20 0 32.5 14.5t12.5 32.5q0 33 -31 33q-21 0 -33 -14t-12 -32q0 -14 8 -24t23 -10zM259 -10q-110 0 -165.5 51t-55.5 144q0 40 10 83l89 422h142
l-93 -440q-4 -19 -4 -40q0 -82 96 -82q55 0 95 36t52 93l92 433h142l-91 -430q-57 -270 -309 -270z" />
    <glyph glyph-name="uring" unicode="&#x16f;" 
d="M343 546q-46 0 -70.5 27t-24.5 66q0 47 32.5 84.5t86.5 37.5q46 0 70 -26.5t24 -65.5q0 -47 -32.5 -85t-85.5 -38zM348 614q20 0 32.5 14.5t12.5 32.5q0 33 -31 33q-21 0 -33 -14t-12 -32q0 -14 8 -24t23 -10zM164 -10q-66 0 -104 38.5t-38 101.5q0 23 6 50l70 332h138
l-66 -308q-5 -20 -5 -40q0 -55 65 -55q46 0 80 35t48 101l57 267h138l-109 -512h-136l14 64h-3q-60 -74 -155 -74z" />
    <glyph glyph-name="Uhungarumlaut" unicode="&#x170;" horiz-adv-x="613" 
d="M272 753l122 114h112l-135 -114h-99zM440 753l123 114h128l-153 -114h-98zM259 -10q-110 0 -165.5 51t-55.5 144q0 40 10 83l89 422h142l-93 -440q-4 -19 -4 -40q0 -82 96 -82q55 0 95 36t52 93l92 433h142l-91 -430q-57 -270 -309 -270z" />
    <glyph glyph-name="uhungarumlaut" unicode="&#x171;" 
d="M198 576l122 114h112l-135 -114h-99zM366 576l123 114h128l-153 -114h-98zM164 -10q-66 0 -104 38.5t-38 101.5q0 23 6 50l70 332h138l-66 -308q-5 -20 -5 -40q0 -55 65 -55q46 0 80 35t48 101l57 267h138l-109 -512h-136l14 64h-3q-60 -74 -155 -74z" />
    <glyph glyph-name="Uogonek" unicode="&#x172;" horiz-adv-x="613" 
d="M517 690h142l-91 -430q-45 -206 -202 -255q-58 -43 -58 -80q0 -20 22 -20q26 0 58 30l53 -57q-50 -56 -115 -56q-36 0 -60.5 19t-24.5 57q0 47 35 92h-17q-110 0 -165.5 51t-55.5 144q0 40 10 83l89 422h142l-93 -440q-4 -19 -4 -40q0 -82 96 -82q55 0 95 36t52 93z" />
    <glyph glyph-name="uogonek" unicode="&#x173;" 
d="M444 0q-64 -28 -100 -63t-36 -62q0 -20 22 -20q26 0 58 30l53 -57q-50 -56 -115 -56q-36 0 -60.5 19t-24.5 57q0 81 97 152h-30l14 64h-3q-60 -74 -155 -74q-66 0 -104 38.5t-38 101.5q0 23 6 50l70 332h138l-66 -308q-5 -20 -5 -40q0 -55 65 -55q46 0 80 35t48 101
l57 267h138z" />
    <glyph glyph-name="Wcircumflex" unicode="&#x174;" horiz-adv-x="918" 
d="M584 803l-61 -61h-105l137 126h73l78 -126h-95zM847 690h150l-281 -690h-210l10 524l-212 -524h-210l12 690h146l-23 -558l233 558h176l-4 -556z" />
    <glyph glyph-name="wcircumflex" unicode="&#x175;" horiz-adv-x="793" 
d="M485 625l-61 -61h-105l137 126h73l78 -126h-95zM687 512h149l-236 -512h-180l-9 316l-144 -316h-181l-17 512h144l-6 -393l180 393h125l14 -393z" />
    <glyph glyph-name="Ycircumflex" unicode="&#x176;" horiz-adv-x="642" 
d="M280 741l137 126h73l78 -126h-95l-27 61l-61 -61h-105zM196 0l59 269l-164 421h157l104 -283l222 283h165l-343 -421l-59 -269h-141z" />
    <glyph glyph-name="ycircumflex" unicode="&#x177;" horiz-adv-x="504" 
d="M171 564l137 126h73l78 -126h-95l-27 61l-61 -61h-105zM-43 -178l13 115q105 0 156 81l-69 494h143l29 -335h8l164 335h151l-297 -527q-58 -102 -117 -132.5t-181 -30.5z" />
    <glyph glyph-name="Ydieresis" unicode="&#x178;" horiz-adv-x="642" 
d="M284 753l25 114h111l-24 -114h-112zM456 753l24 114h112l-25 -114h-111zM196 0l59 269l-164 421h157l104 -283l222 283h165l-343 -421l-59 -269h-141z" />
    <glyph glyph-name="Zacute" unicode="&#x179;" horiz-adv-x="576" 
d="M614 867l-175 -119h-96l133 119h138zM645 690l-21 -107l-427 -455h329l-28 -128h-533l19 99l439 463h-318l27 128h513z" />
    <glyph glyph-name="zacute" unicode="&#x17a;" horiz-adv-x="467" 
d="M526 690l-175 -119h-96l133 119h138zM60 397l25 115h410l-22 -109l-291 -287h227l-24 -116h-411l19 103l305 294h-238z" />
    <glyph glyph-name="Zdotaccent" unicode="&#x17b;" horiz-adv-x="576" 
d="M480 867l-24 -113h-137l25 113h136zM645 690l-21 -107l-427 -455h329l-28 -128h-533l19 99l439 463h-318l27 128h513z" />
    <glyph glyph-name="zdotaccent" unicode="&#x17c;" horiz-adv-x="467" 
d="M393 690l-24 -113h-137l25 113h136zM495 512l-22 -109l-291 -287h227l-24 -116h-411l19 103l305 294h-238l25 115h410z" />
    <glyph glyph-name="Zcaron" unicode="&#x17d;" horiz-adv-x="576" 
d="M419 741h-73l-78 126h95l29 -61l59 61h105zM645 690l-21 -107l-427 -455h329l-28 -128h-533l19 99l439 463h-318l27 128h513z" />
    <glyph glyph-name="zcaron" unicode="&#x17e;" horiz-adv-x="467" 
d="M332 564h-73l-78 126h95l29 -61l59 61h105zM495 512l-22 -109l-291 -287h227l-24 -116h-411l19 103l305 294h-238l25 115h410z" />
    <glyph glyph-name="florin" unicode="&#x192;" horiz-adv-x="432" 
d="M-41 -211l14 119q49 0 78.5 23t40.5 75l89 419h-78l18 87h80l9 40q13 65 56.5 101.5t114.5 36.5h94l-22 -105h-54q-21 0 -37 -16t-20 -38l-5 -19h100l-18 -87h-100l-92 -431q-43 -205 -268 -205z" />
    <glyph glyph-name="uni01CD" unicode="&#x1cd;" horiz-adv-x="641" 
d="M458 741h-73l-78 126h95l29 -61l59 61h105zM318 690h186l79 -690h-149l-13 154h-240l-79 -154h-156zM242 275h170l-23 279h-4z" />
    <glyph glyph-name="uni01CE" unicode="&#x1ce;" horiz-adv-x="503" 
d="M352 564h-73l-78 126h95l29 -61l59 61h105zM292 522q87 0 137.5 -34.5t50.5 -104.5q0 -20 -5 -47l-72 -336h-122l11 51q-73 -62 -154 -62q-64 0 -101 31.5t-37 86.5q0 56 31.5 99.5t87.5 67.5q67 30 235 69q2 16 2 21q0 53 -67 53q-82 0 -147 -73l-74 79q88 99 224 99z
M191 81q63 0 121 62l21 101q-87 -20 -134 -44q-67 -32 -67 -73q0 -46 59 -46z" />
    <glyph glyph-name="uni01CF" unicode="&#x1cf;" horiz-adv-x="248" 
d="M186 741l-78 126h95l29 -61l59 61h105l-137 -126h-73zM-1 0l147 690h142l-147 -690h-142z" />
    <glyph glyph-name="uni01D0" unicode="&#x1d0;" horiz-adv-x="226" 
d="M139 564l-78 126h95l29 -61l59 61h105l-137 -126h-73zM-9 0l109 512h135l-109 -512h-135z" />
    <glyph glyph-name="uni01D1" unicode="&#x1d1;" horiz-adv-x="684" 
d="M403 741l-78 126h95l29 -61l59 61h105l-137 -126h-73zM294 -10q-120 0 -187.5 69.5t-67.5 191.5q0 50 12 107q34 157 134.5 249.5t237.5 92.5q122 0 190.5 -69.5t68.5 -191.5q0 -52 -13 -107q-33 -157 -134 -249.5t-241 -92.5zM300 121q79 0 140.5 64.5t83.5 172.5
q9 40 9 74q0 65 -30.5 101t-85.5 36q-77 0 -137 -64.5t-82 -172.5q-9 -42 -9 -77q0 -63 29 -98.5t82 -35.5z" />
    <glyph glyph-name="uni01D2" unicode="&#x1d2;" horiz-adv-x="553" 
d="M303 564l-78 126h95l29 -61l59 61h105l-137 -126h-73zM231 -11q-101 0 -154 62t-53 155q0 76 33.5 147t104 120t161.5 49q100 0 153 -62t53 -155q0 -76 -33.5 -147t-103.5 -120t-161 -49zM245 108q65 0 108.5 62.5t43.5 132.5q0 45 -21.5 73t-65.5 28q-64 0 -107.5 -63
t-43.5 -133q0 -44 21.5 -72t64.5 -28z" />
    <glyph glyph-name="uni01D3" unicode="&#x1d3;" horiz-adv-x="613" 
d="M371 741l-78 126h95l29 -61l59 61h105l-137 -126h-73zM259 -10q-110 0 -165.5 51t-55.5 144q0 40 10 83l89 422h142l-93 -440q-4 -19 -4 -40q0 -82 96 -82q55 0 95 36t52 93l92 433h142l-91 -430q-57 -270 -309 -270z" />
    <glyph glyph-name="uni01D4" unicode="&#x1d4;" 
d="M297 564l-78 126h95l29 -61l59 61h105l-137 -126h-73zM164 -10q-66 0 -104 38.5t-38 101.5q0 23 6 50l70 332h138l-66 -308q-5 -20 -5 -40q0 -55 65 -55q46 0 80 35t48 101l57 267h138l-109 -512h-136l14 64h-3q-60 -74 -155 -74z" />
    <glyph glyph-name="uni01D5" unicode="&#x1d5;" horiz-adv-x="613" 
d="M323 930l16 75h254l-15 -75h-255zM270 753l25 114h111l-24 -114h-112zM442 753l24 114h112l-25 -114h-111zM259 -10q-110 0 -165.5 51t-55.5 144q0 40 10 83l89 422h142l-93 -440q-4 -19 -4 -40q0 -82 96 -82q55 0 95 36t52 93l92 433h142l-91 -430q-57 -270 -309 -270z
" />
    <glyph glyph-name="uni01D6" unicode="&#x1d6;" 
d="M250 753l16 75h254l-15 -75h-255zM197 576l25 114h111l-24 -114h-112zM369 576l24 114h112l-25 -114h-111zM164 -10q-66 0 -104 38.5t-38 101.5q0 23 6 50l70 332h138l-66 -308q-5 -20 -5 -40q0 -55 65 -55q46 0 80 35t48 101l57 267h138l-109 -512h-136l14 64h-3
q-60 -74 -155 -74z" />
    <glyph glyph-name="uni01D7" unicode="&#x1d7;" horiz-adv-x="613" 
d="M405 926l133 119h138l-175 -119h-96zM270 753l25 114h111l-24 -114h-112zM442 753l24 114h112l-25 -114h-111zM259 -10q-110 0 -165.5 51t-55.5 144q0 40 10 83l89 422h142l-93 -440q-4 -19 -4 -40q0 -82 96 -82q55 0 95 36t52 93l92 433h142l-91 -430
q-57 -270 -309 -270z" />
    <glyph glyph-name="uni01D8" unicode="&#x1d8;" 
d="M332 749l133 119h138l-175 -119h-96zM197 576l25 114h111l-24 -114h-112zM369 576l24 114h112l-25 -114h-111zM164 -10q-66 0 -104 38.5t-38 101.5q0 23 6 50l70 332h138l-66 -308q-5 -20 -5 -40q0 -55 65 -55q46 0 80 35t48 101l57 267h138l-109 -512h-136l14 64h-3
q-60 -74 -155 -74z" />
    <glyph glyph-name="uni01D9" unicode="&#x1d9;" horiz-adv-x="613" 
d="M409 919l-78 126h95l29 -61l59 61h105l-137 -126h-73zM270 753l25 114h111l-24 -114h-112zM442 753l24 114h112l-25 -114h-111zM259 -10q-110 0 -165.5 51t-55.5 144q0 40 10 83l89 422h142l-93 -440q-4 -19 -4 -40q0 -82 96 -82q55 0 95 36t52 93l92 433h142l-91 -430
q-57 -270 -309 -270z" />
    <glyph glyph-name="uni01DA" unicode="&#x1da;" 
d="M335 742l-78 126h95l29 -61l59 61h105l-137 -126h-73zM197 576l25 114h111l-24 -114h-112zM369 576l24 114h112l-25 -114h-111zM164 -10q-66 0 -104 38.5t-38 101.5q0 23 6 50l70 332h138l-66 -308q-5 -20 -5 -40q0 -55 65 -55q46 0 80 35t48 101l57 267h138l-109 -512
h-136l14 64h-3q-60 -74 -155 -74z" />
    <glyph glyph-name="uni01DB" unicode="&#x1db;" horiz-adv-x="613" 
d="M405 926l-108 119h128l70 -119h-90zM270 753l25 114h111l-24 -114h-112zM442 753l24 114h112l-25 -114h-111zM259 -10q-110 0 -165.5 51t-55.5 144q0 40 10 83l89 422h142l-93 -440q-4 -19 -4 -40q0 -82 96 -82q55 0 95 36t52 93l92 433h142l-91 -430q-57 -270 -309 -270
z" />
    <glyph glyph-name="uni01DC" unicode="&#x1dc;" 
d="M331 749l-108 119h128l70 -119h-90zM197 576l25 114h111l-24 -114h-112zM369 576l24 114h112l-25 -114h-111zM164 -10q-66 0 -104 38.5t-38 101.5q0 23 6 50l70 332h138l-66 -308q-5 -20 -5 -40q0 -55 65 -55q46 0 80 35t48 101l57 267h138l-109 -512h-136l14 64h-3
q-60 -74 -155 -74z" />
    <glyph glyph-name="Oslashacute" unicode="&#x1fe;" horiz-adv-x="684" 
d="M671 867l-175 -119h-96l133 119h138zM733 634l-76 -67q25 -56 25 -128q0 -52 -13 -107q-33 -157 -134 -249.5t-241 -92.5q-133 0 -201 84l-72 -63l-37 46l79 69q-24 54 -24 125q0 50 12 107q34 157 134.5 249.5t237.5 92.5q132 0 202 -82l70 62zM189 255q0 -12 1 -18
l322 283q-29 49 -95 49q-77 0 -137 -64.5t-82 -172.5q-9 -42 -9 -77zM533 432q0 18 -1 26l-325 -285q28 -52 93 -52q79 0 140.5 64.5t83.5 172.5q9 40 9 74z" />
    <glyph glyph-name="oslashacute" unicode="&#x1ff;" horiz-adv-x="553" 
d="M571 690l-175 -119h-96l133 119h138zM515 492l26 -32l-40 -35q28 -52 28 -120q0 -76 -33.5 -147t-103.5 -120t-161 -49q-99 0 -155 63l-37 -32l-27 33l40 35q-28 50 -28 118q0 76 33.5 147t104 120t161.5 49q98 0 154 -63zM159 208q0 -9 2 -25l217 189q-22 32 -68 32
q-64 0 -107.5 -63t-43.5 -133zM397 303q0 9 -2 29l-218 -191q21 -33 68 -33q65 0 108.5 62.5t43.5 132.5z" />
    <glyph glyph-name="uni0218" unicode="&#x218;" horiz-adv-x="542" 
d="M239 -8q-86 0 -148 45t-90 129l113 73q37 -118 137 -118q51 0 84 27t33 68q0 33 -20.5 50t-69.5 38q-2 1 -3.5 1.5t-4 1.5t-4.5 2q-85 34 -114 57q-49 39 -49 105q0 102 72.5 165.5t183.5 63.5q129 0 203 -110l-92 -83q-41 73 -121 73q-42 0 -72.5 -22t-30.5 -52
q0 -26 19 -40t69 -34q33 -12 50.5 -19.5t45 -23.5t42 -32.5t26 -43t11.5 -59.5q0 -112 -77.5 -187t-192.5 -75zM54 -212l103 148h132l-158 -148h-77z" />
    <glyph glyph-name="uni0219" unicode="&#x219;" horiz-adv-x="470" 
d="M200 -11q-63 0 -120.5 24t-93.5 67l73 83q48 -69 138 -69q35 0 63 16t28 44q0 22 -18.5 33.5t-60.5 23.5q-32 8 -53.5 16t-44.5 22t-35 37.5t-12 54.5q0 87 59 134t154 47q119 0 189 -78l-66 -81q-47 58 -125 58q-33 0 -57 -14t-24 -38q0 -7 2.5 -12.5t9 -10.5t11.5 -8
t16.5 -7.5t17.5 -6.5t21 -6t20 -6q61 -18 95.5 -47.5t34.5 -86.5q0 -89 -60.5 -139t-161.5 -50zM39 -213l103 148h132l-158 -148h-77z" />
    <glyph glyph-name="uni021A" unicode="&#x21a;" horiz-adv-x="540" 
d="M144 0l119 562h-193l27 128h530l-27 -128h-194l-120 -562h-142zM50 -213l103 148h132l-158 -148h-77z" />
    <glyph glyph-name="uni021B" unicode="&#x21b;" horiz-adv-x="347" 
d="M146 0q-45 0 -70 26t-25 71q0 16 5 39l62 289h-67l19 87h66l38 178h137l-38 -178h104l-18 -87h-105l-56 -265q-3 -16 -3 -25q0 -12 7 -16.5t23 -4.5h68l-25 -114h-122zM5 -213l103 148h132l-158 -148h-77z" />
    <glyph glyph-name="uni0237" unicode="&#x237;" horiz-adv-x="232" 
d="M-121 -178l14 115q42 0 71.5 26t37.5 63l103 486h135l-105 -494q-23 -103 -83 -149.5t-173 -46.5z" />
    <glyph glyph-name="circumflex" unicode="&#x2c6;" horiz-adv-x="323" 
d="M292 690l78 -126h-95l-29 61l-59 -61h-105l137 126h73z" />
    <glyph glyph-name="caron" unicode="&#x2c7;" horiz-adv-x="324" 
d="M188 564l-78 126h95l29 -61l59 61h105l-137 -126h-73z" />
    <glyph glyph-name="breve" unicode="&#x2d8;" horiz-adv-x="358" 
d="M246 558q-66 0 -99 37.5t-16 94.5h79q-17 -63 40 -63q53 0 76 63h85q-36 -132 -165 -132z" />
    <glyph glyph-name="dotaccent" unicode="&#x2d9;" horiz-adv-x="265" 
d="M132 577l25 113h136l-24 -113h-137z" />
    <glyph glyph-name="ring" unicode="&#x2da;" horiz-adv-x="292" 
d="M219 546q-46 0 -70.5 27t-24.5 66q0 47 32.5 84.5t86.5 37.5q46 0 70 -26.5t24 -65.5q0 -47 -32.5 -85t-85.5 -38zM224 614q20 0 32.5 14.5t12.5 32.5q0 33 -31 33q-21 0 -33 -14t-12 -32q0 -14 8 -24t23 -10z" />
    <glyph glyph-name="ogonek" unicode="&#x2db;" horiz-adv-x="263" 
d="M38 -228q-36 0 -60.5 19t-24.5 57q0 92 121 168l82 -16q-64 -28 -100 -63t-36 -62q0 -20 22 -20q26 0 58 30l53 -57q-50 -56 -115 -56z" />
    <glyph glyph-name="tilde" unicode="&#x2dc;" horiz-adv-x="430" 
d="M185 552l-74 15q30 125 117 125q27 0 45.5 -9t26.5 -20t18.5 -20t23.5 -9q21 0 38 18t25 46l72 -15q-34 -126 -119 -126q-26 0 -44.5 9.5t-27 21t-18.5 21t-22 9.5q-18 0 -35 -17.5t-26 -48.5z" />
    <glyph glyph-name="hungarumlaut" unicode="&#x2dd;" horiz-adv-x="432" 
d="M88 576l122 114h112l-135 -114h-99zM256 576l123 114h128l-153 -114h-98z" />
    <glyph glyph-name="gravecomb" unicode="&#x300;" horiz-adv-x="0" 
d="M-43 571l-108 119h128l70 -119h-90z" />
    <glyph glyph-name="acutecomb" unicode="&#x301;" horiz-adv-x="0" 
d="M-194 571l133 119h138l-175 -119h-96z" />
    <glyph glyph-name="uni0302" unicode="&#x302;" horiz-adv-x="0" 
d="M-241 564l137 126h73l78 -126h-95l-27 61l-61 -61h-105z" />
    <glyph glyph-name="tildecomb" unicode="&#x303;" horiz-adv-x="0" 
d="M-245 552l-74 15q30 125 117 125q27 0 45.5 -9t26.5 -20t18.5 -20t23.5 -9q21 0 38 18t25 46l72 -15q-34 -126 -119 -126q-26 0 -44.5 9.5t-27 21t-18.5 21t-22 9.5q-18 0 -35 -17.5t-26 -48.5z" />
    <glyph glyph-name="uni0304" unicode="&#x304;" horiz-adv-x="0" 
d="M-250 575l16 75h254l-15 -75h-255z" />
    <glyph glyph-name="uni0306" unicode="&#x306;" horiz-adv-x="0" 
d="M-112 558q-66 0 -99 37.5t-16 94.5h79q-17 -63 40 -63q53 0 76 63h85q-36 -132 -165 -132z" />
    <glyph glyph-name="uni0307" unicode="&#x307;" horiz-adv-x="0" 
d="M-133 577l25 113h136l-24 -113h-137z" />
    <glyph glyph-name="uni0308" unicode="&#x308;" horiz-adv-x="0" 
d="M-280 576l25 114h111l-24 -114h-112zM-108 576l24 114h112l-25 -114h-111z" />
    <glyph glyph-name="uni030A" unicode="&#x30a;" horiz-adv-x="0" 
d="M-73 546q-46 0 -70.5 27t-24.5 66q0 47 32.5 84.5t86.5 37.5q46 0 70 -26.5t24 -65.5q0 -47 -32.5 -85t-85.5 -38zM-68 614q20 0 32.5 14.5t12.5 32.5q0 33 -31 33q-21 0 -33 -14t-12 -32q0 -14 8 -24t23 -10z" />
    <glyph glyph-name="uni030B" unicode="&#x30b;" horiz-adv-x="0" 
d="M-344 576l122 114h112l-135 -114h-99zM-176 576l123 114h128l-153 -114h-98z" />
    <glyph glyph-name="uni030C" unicode="&#x30c;" horiz-adv-x="0" 
d="M-136 564l-78 126h95l29 -61l59 61h105l-137 -126h-73z" />
    <glyph glyph-name="uni0312" unicode="&#x312;" horiz-adv-x="0" 
d="M64 690l-103 -132h-132l157 132h78z" />
    <glyph glyph-name="uni0326" unicode="&#x326;" horiz-adv-x="0" 
d="M-317 -213l103 148h132l-158 -148h-77z" />
    <glyph glyph-name="uni0327" unicode="&#x327;" horiz-adv-x="0" 
d="M-241 -244q-40 0 -66.5 22.5t-29.5 54.5l64 17q6 -24 34 -24q18 0 31 13t13 32q0 23 -29 32l-61 16l85 108l73 -27l-55 -58l5 -2q53 -18 53 -77q0 -47 -34.5 -77t-82.5 -30z" />
    <glyph glyph-name="uni0328" unicode="&#x328;" horiz-adv-x="0" 
d="M-225 -228q-36 0 -60.5 19t-24.5 57q0 92 121 168l82 -16q-64 -28 -100 -63t-36 -62q0 -20 22 -20q27 0 58 30l53 -57q-50 -56 -115 -56z" />
    <glyph glyph-name="uni0335" unicode="&#x335;" horiz-adv-x="0" 
d="M-356 251l14 67h292l-14 -67h-292z" />
    <glyph glyph-name="uni0336" unicode="&#x336;" horiz-adv-x="0" 
d="M-683 235l22 86h613l-22 -86h-613z" />
    <glyph glyph-name="uni0337" unicode="&#x337;" horiz-adv-x="0" 
d="M-331 86l32 115l303 179l-31 -112z" />
    <glyph glyph-name="uni0338" unicode="&#x338;" horiz-adv-x="0" 
d="M-742 -92l-37 46l711 623l38 -46z" />
    <glyph glyph-name="uni03BC" unicode="&#x3bc;" horiz-adv-x="621" 
d="M18 -130l136 642h138l-65 -308q-18 -85 56 -85q48 0 83 31.5t45 75.5l60 286h138l-109 -512h-135l15 64l-7 -5q-57 -71 -154 -71q-34 0 -51 14l-41 -132h-109z" />
    <glyph glyph-name="pi" unicode="&#x3c0;" horiz-adv-x="572" 
d="M431 -10q-60 0 -87 32t-15 89l60 282h-172l-83 -393h-112l83 393h-37l25 119h471l-25 -119h-38l-56 -264q-4 -23 17 -23q16 0 30 10l16 -105q-35 -21 -77 -21z" />
    <glyph glyph-name="Wgrave" unicode="&#x1e80;" horiz-adv-x="918" 
d="M608 749h-90l-108 119h128zM847 690h150l-281 -690h-210l10 524l-212 -524h-210l12 690h146l-23 -558l233 558h176l-4 -556z" />
    <glyph glyph-name="wgrave" unicode="&#x1e81;" horiz-adv-x="793" 
d="M509 571h-90l-108 119h128zM687 512h149l-236 -512h-180l-9 316l-144 -316h-181l-17 512h144l-6 -393l180 393h125l14 -393z" />
    <glyph glyph-name="Wacute" unicode="&#x1e82;" horiz-adv-x="918" 
d="M789 868l-175 -119h-96l133 119h138zM847 690h150l-281 -690h-210l10 524l-212 -524h-210l12 690h146l-23 -558l233 558h176l-4 -556z" />
    <glyph glyph-name="wacute" unicode="&#x1e83;" horiz-adv-x="793" 
d="M691 690l-175 -119h-96l133 119h138zM687 512h149l-236 -512h-180l-9 316l-144 -316h-181l-17 512h144l-6 -393l180 393h125l14 -393z" />
    <glyph glyph-name="Wdieresis" unicode="&#x1e84;" horiz-adv-x="918" 
d="M557 868l-24 -114h-112l25 114h111zM729 868l-25 -114h-111l24 114h112zM847 690h150l-281 -690h-210l10 524l-212 -524h-210l12 690h146l-23 -558l233 558h176l-4 -556z" />
    <glyph glyph-name="wdieresis" unicode="&#x1e85;" horiz-adv-x="793" 
d="M459 690l-24 -114h-112l25 114h111zM631 690l-25 -114h-111l24 114h112zM687 512h149l-236 -512h-180l-9 316l-144 -316h-181l-17 512h144l-6 -393l180 393h125l14 -393z" />
    <glyph glyph-name="uni1E9E" unicode="&#x1e9e;" horiz-adv-x="682" 
d="M379 -8q-96 0 -169 63l80 115q39 -51 102 -51q42 0 74 26t36 66q4 33 -20.5 55t-79.5 41l-107 34l176 221h-210l-120 -562h-142l147 690h574l-212 -259l16 -10q67 -35 98.5 -73.5t25.5 -109.5q-6 -106 -82.5 -176t-186.5 -70z" />
    <glyph glyph-name="uni1EBC" unicode="&#x1ebc;" horiz-adv-x="519" 
d="M281 729l-74 15q30 125 117 125q27 0 45.5 -9t26.5 -20t18.5 -20t23.5 -9q21 0 38 18t25 46l72 -15q-34 -126 -119 -126q-26 0 -44.5 9.5t-27 21t-18.5 21t-22 9.5q-18 0 -35 -17.5t-26 -48.5zM-1 0l147 690h439l-28 -128h-297l-32 -152h269l-27 -128h-269l-33 -153h297
l-27 -129h-439z" />
    <glyph glyph-name="uni1EBD" unicode="&#x1ebd;" horiz-adv-x="526" 
d="M293 618q-18 0 -35 -17.5t-26 -48.5l-74 15q30 125 117 125q27 0 45.5 -9t26 -20t18.5 -20t24 -9q21 0 38 18t25 46l72 -15q-34 -126 -119 -126q-26 0 -44.5 9.5t-27 21t-18.5 21t-22 9.5zM312 522q95 0 145 -51t50 -134q0 -61 -24 -116h-322q-2 -22 -2 -30q0 -87 85 -87
q78 0 137 65l75 -76q-57 -57 -109 -80t-113 -23q-96 0 -154 51.5t-58 146.5q0 136 82 235t208 99zM307 414q-49 0 -81 -29.5t-45 -73.5h189q5 20 5 35q0 68 -68 68z" />
    <glyph glyph-name="Ygrave" unicode="&#x1ef2;" horiz-adv-x="642" 
d="M380 748l-108 119h128l70 -119h-90zM196 0l59 269l-164 421h157l104 -283l222 283h165l-343 -421l-59 -269h-141z" />
    <glyph glyph-name="ygrave" unicode="&#x1ef3;" horiz-adv-x="504" 
d="M271 571l-108 119h128l70 -119h-90zM-43 -178l13 115q105 0 156 81l-69 494h143l29 -335h8l164 335h151l-297 -527q-58 -102 -117 -132.5t-181 -30.5z" />
    <glyph glyph-name="uni1EF8" unicode="&#x1ef8;" horiz-adv-x="642" 
d="M328 729l-74 15q30 125 117 125q27 0 45.5 -9t26 -20t18.5 -20t24 -9q21 0 38 18t25 46l72 -15q-34 -126 -119 -126q-26 0 -44.5 9.5t-27 21t-18.5 21t-22 9.5q-18 0 -35 -17.5t-26 -48.5zM196 0l59 269l-164 421h157l104 -283l222 283h165l-343 -421l-59 -269h-141z" />
    <glyph glyph-name="uni1EF9" unicode="&#x1ef9;" horiz-adv-x="504" 
d="M219 552l-74 15q30 125 117 125q27 0 45.5 -9t26.5 -20t18.5 -20t23.5 -9q21 0 38 18t25 46l72 -15q-34 -126 -119 -126q-26 0 -44.5 9.5t-27 21t-18.5 21t-22 9.5q-18 0 -35 -17.5t-26 -48.5zM-43 -178l13 115q105 0 156 81l-69 494h143l29 -335h8l164 335h151
l-297 -527q-58 -102 -117 -132.5t-181 -30.5z" />
    <glyph glyph-name="endash" unicode="&#x2013;" horiz-adv-x="523" 
d="M63 193l25 120h371l-26 -120h-370z" />
    <glyph glyph-name="emdash" unicode="&#x2014;" horiz-adv-x="940" 
d="M-13 193l25 120h940l-25 -120h-940z" />
    <glyph glyph-name="quoteleft" unicode="&#x2018;" horiz-adv-x="239" 
d="M60 382l32 158l140 170h74l-105 -170h58l-33 -158h-166z" />
    <glyph glyph-name="quoteright" unicode="&#x2019;" horiz-adv-x="240" 
d="M52 362l105 170h-58l34 158h166l-32 -158l-140 -170h-75z" />
    <glyph glyph-name="quotesinglbase" unicode="&#x201a;" horiz-adv-x="269" 
d="M-45 -170l105 170h-58l34 158h165l-31 -158l-141 -170h-74z" />
    <glyph glyph-name="quotedblleft" unicode="&#x201c;" horiz-adv-x="473" 
d="M60 382l32 158l140 170h74l-105 -170h58l-33 -158h-166zM293 382l32 158l140 170h75l-106 -170h59l-34 -158h-166z" />
    <glyph glyph-name="quotedblright" unicode="&#x201d;" horiz-adv-x="475" 
d="M52 362l105 170h-58l34 158h166l-32 -158l-140 -170h-75zM287 362l106 170h-59l34 158h165l-31 -158l-140 -170h-75z" />
    <glyph glyph-name="quotedblbase" unicode="&#x201e;" horiz-adv-x="504" 
d="M-45 -170l105 170h-58l34 158h165l-31 -158l-141 -170h-74zM190 -170l105 170h-58l34 158h165l-32 -158l-140 -170h-74z" />
    <glyph glyph-name="dagger" unicode="&#x2020;" horiz-adv-x="409" 
d="M59 -100l103 484h-102l28 130h102l37 176h121l-37 -176h102l-28 -130h-102l-103 -484h-121z" />
    <glyph glyph-name="daggerdbl" unicode="&#x2021;" horiz-adv-x="393" 
d="M60 -100l38 176h-102l28 130h102l37 178h-101l28 130h101l37 176h122l-38 -176h101l-27 -130h-102l-38 -178h102l-28 -130h-101l-37 -176h-122z" />
    <glyph glyph-name="bullet" unicode="&#x2022;" horiz-adv-x="579" 
d="M290 45q-88 0 -150.5 62.5t-62.5 150.5t62.5 150.5t150.5 62.5q87 0 149.5 -62.5t62.5 -150.5t-62.5 -150.5t-149.5 -62.5z" />
    <glyph glyph-name="twodotenleader" unicode="&#x2025;" horiz-adv-x="430" 
d="M-9 0l32 148h124l-31 -148h-125zM207 0l31 148h124l-31 -148h-124z" />
    <glyph glyph-name="ellipsis" unicode="&#x2026;" horiz-adv-x="801" 
d="M-9 0l34 158h166l-34 -158h-166zM264 0l33 158h166l-33 -158h-166zM536 0l33 158h166l-33 -158h-166z" />
    <glyph glyph-name="perthousand" unicode="&#x2030;" horiz-adv-x="1095" 
d="M215 358q-58 0 -87.5 37.5t-29.5 95.5q0 78 47 144t119 66q57 0 86 -38t29 -96q0 -78 -46 -143.5t-118 -65.5zM103 0l495 690h123l-494 -690h-124zM222 453q25 0 42.5 33.5t17.5 69.5q0 49 -30 49q-25 0 -42 -33.5t-17 -69.5q0 -21 7.5 -35t21.5 -14zM563 -11
q-58 0 -87.5 37.5t-29.5 95.5q0 78 47 144t119 66q57 0 86 -38t29 -96q0 -78 -46 -143.5t-118 -65.5zM871 -11q-58 0 -87.5 37.5t-29.5 95.5q0 78 47 144t119 66q57 0 86 -38t29 -96q0 -78 -46 -143.5t-118 -65.5zM570 84q25 0 42.5 33.5t17.5 69.5q0 49 -30 49
q-25 0 -42 -33.5t-17 -69.5q0 -21 7.5 -35t21.5 -14zM878 84q25 0 42.5 33.5t17.5 69.5q0 49 -30 49q-25 0 -42 -33.5t-17 -69.5q0 -21 7.5 -35t21.5 -14z" />
    <glyph glyph-name="guilsinglleft" unicode="&#x2039;" horiz-adv-x="327" 
d="M206 68l-177 181l250 182l-22 -118l-95 -64l66 -63z" />
    <glyph glyph-name="guilsinglright" unicode="&#x203a;" horiz-adv-x="327" 
d="M44 68l22 118l96 63l-66 64l22 118l175 -182z" />
    <glyph glyph-name="fraction" unicode="&#x2044;" horiz-adv-x="177" 
d="M-153 0l450 690h86l-453 -690h-83z" />
    <glyph glyph-name="Euro" unicode="&#x20ac;" horiz-adv-x="718" 
d="M368 122q113 0 185 133l112 -65q-104 -200 -308 -200q-120 0 -179 69t-60 183h-66l13 67h57q3 31 9 59h-54l13 70h61q43 118 131.5 190.5t205.5 72.5q154 0 210 -116l-87 -92q-21 39 -51.5 57.5t-79.5 18.5q-57 0 -103.5 -35.5t-76.5 -95.5h254l-68 -70h-214
q-7 -28 -12 -59h164l-64 -67h-104q3 -58 32 -89t80 -31z" />
    <glyph glyph-name="trademark" unicode="&#x2122;" horiz-adv-x="715" 
d="M365 690l-16 -72h-68l-47 -223h-80l47 223h-68l15 72h217zM594 690h114l-63 -295h-75l43 199l-84 -199h-73l-4 203l-43 -203h-74l63 295h113l-2 -205z" />
    <glyph glyph-name="uni2126" unicode="&#x2126;" horiz-adv-x="795" 
d="M18 0l25 115h128q-83 66 -83 190q0 159 117 277t274 118q124 0 199 -78t75 -202q0 -96 -47.5 -179t-131.5 -126h121l-24 -115h-265l18 109q91 22 146.5 105.5t55.5 176.5q0 86 -42 138t-125 52q-77 0 -137 -45.5t-90 -113.5t-30 -142q0 -60 25 -105.5t73 -65.5l-18 -109
h-264z" />
    <glyph glyph-name="arrowleft" unicode="&#x2190;" horiz-adv-x="1108" 
d="M596 371h512v-119h-513q-174 0 -296 19l265 -129v-122l-525 292l525 291v-122l-264 -130q120 20 296 20z" />
    <glyph glyph-name="arrowright" unicode="&#x2192;" horiz-adv-x="1179" 
d="M616 20v122l265 129q-122 -19 -296 -19h-513v119h512q176 0 296 -20l-264 130v122l525 -291z" />
    <glyph glyph-name="partialdiff" unicode="&#x2202;" horiz-adv-x="614" 
d="M226 -6q-91 0 -139 50t-48 132t41 161t113.5 130t155.5 51q48 0 80.5 -20t40.5 -53h10q5 27 5 46q0 49 -23 76t-65 27q-53 0 -93 -41l-56 86q62 59 152 59q96 0 142 -59.5t46 -159.5q0 -120 -44 -230t-129 -182.5t-189 -72.5zM249 110q77 0 128.5 66.5t51.5 139.5
q0 41 -20 67t-59 26q-78 0 -131 -67t-53 -139q0 -41 21 -67t62 -26z" />
    <glyph glyph-name="uni2206" unicode="&#x2206;" horiz-adv-x="633" 
d="M-24 0l398 690h59l117 -690h-574zM168 119h247l-48 367z" />
    <glyph glyph-name="product" unicode="&#x220f;" horiz-adv-x="633" 
d="M45 0l121 571h-69l25 119h557l-26 -119h-69l-121 -571h-112l122 571h-195l-121 -571h-112z" />
    <glyph glyph-name="summation" unicode="&#x2211;" horiz-adv-x="615" 
d="M-9 0l11 62l320 283l-196 282l11 63h514l-25 -119h-319l174 -226l-254 -226h303l-26 -119h-513z" />
    <glyph glyph-name="minus" unicode="&#x2212;" horiz-adv-x="675" 
d="M122 196v114h431v-114h-431z" />
    <glyph glyph-name="radical" unicode="&#x221a;" horiz-adv-x="635" 
d="M588 699l102 -39l-453 -755h-81l-47 349h-75l25 120h156l22 -277z" />
    <glyph glyph-name="infinity" unicode="&#x221e;" horiz-adv-x="874" 
d="M254 138q-71 0 -117.5 48.5t-46.5 122.5t46.5 122.5t117.5 48.5q88 0 182 -92q94 92 183 92q71 0 117.5 -48.5t46.5 -122.5t-46.5 -122.5t-117.5 -48.5q-89 0 -183 92q-94 -92 -182 -92zM263 245q39 0 101 64q-62 64 -101 64q-28 0 -47 -17t-19 -47t19 -47t47 -17z
M611 245q27 0 46 17t19 47t-19 47t-46 17q-40 0 -102 -64q62 -64 102 -64z" />
    <glyph glyph-name="integral" unicode="&#x222b;" horiz-adv-x="443" 
d="M-62 -223l15 119q76 0 112.5 29.5t51.5 99.5l113 529q15 69 62.5 111t106.5 42q67 0 107 -48l-84 -84q-15 15 -27 15q-18 -2 -34.5 -15.5t-22.5 -38.5l-113 -533q-23 -110 -99.5 -168t-187.5 -58z" />
    <glyph glyph-name="approxequal" unicode="&#x2248;" horiz-adv-x="582" 
d="M346 295q-35 0 -65.5 18.5t-57 37.5t-50.5 19q-47 0 -47 -68h-101q0 85 33.5 132t97.5 47q30 0 56.5 -11.5t42 -26t36 -26t40.5 -11.5q48 0 48 74h103q0 -90 -35.5 -137.5t-100.5 -47.5zM346 56q-35 0 -65.5 18.5t-57 37.5t-50.5 19q-47 0 -47 -68h-101q0 85 33.5 132
t97.5 47q38 0 69 -19t56.5 -37.5t49.5 -18.5q48 0 48 74h103q0 -90 -35.5 -137.5t-100.5 -47.5z" />
    <glyph glyph-name="notequal" unicode="&#x2260;" horiz-adv-x="709" 
d="M615 314h-174l-56 -102h230v-121h-298l-95 -171h-119l96 171h-105v121h173l58 102h-231v121h299l98 175h115l-97 -175h106v-121z" />
    <glyph glyph-name="lessequal" unicode="&#x2264;" horiz-adv-x="609" 
d="M539 144l-496 255l496 256v-122l-269 -134l269 -133v-122zM535 0h-488v99h488v-99z" />
    <glyph glyph-name="greaterequal" unicode="&#x2265;" horiz-adv-x="613" 
d="M74 144v122l269 133l-269 134v122l496 -256zM78 0v99h488v-99h-488z" />
    <glyph glyph-name="lozenge" unicode="&#x25ca;" horiz-adv-x="536" 
d="M165 0l-111 350l256 350h104l108 -350l-253 -350h-104zM238 132l153 218l-53 218l-152 -218z" />
    <glyph glyph-name="uniF8FF" unicode="&#xf8ff;" horiz-adv-x="834" 
d="M436 -30q-157 0 -267.5 110.5t-110.5 267.5t110.5 267.5t267.5 110.5t267.5 -110.5t110.5 -267.5t-110.5 -267.5t-267.5 -110.5zM436 5q142 0 242.5 100.5t100.5 242.5t-100.5 242.5t-242.5 100.5t-242.5 -100.5t-100.5 -242.5t100.5 -242.5t242.5 -100.5zM239 200
q-7 0 -12 5t-5 12v262q0 7 5 12.5t12 5.5t12.5 -5.5t5.5 -12.5v-262q0 -17 -18 -17zM436 200q-17 0 -17 17v262q0 18 17 18t17 -18v-262q0 -17 -17 -17zM632 200q-7 0 -11 5l-132 131q-4 5 -4 12q0 8 4 12l132 131q5 6 11 6q7 0 12.5 -5.5t5.5 -12.5t-5 -12l-119 -119
l119 -119q5 -5 5 -12t-5.5 -12t-12.5 -5zM305 331q-17 0 -17 17t17 17h65q18 0 18 -17t-18 -17h-65z" />
    <glyph glyph-name="i.loclTRK" horiz-adv-x="226" 
d="M113 577l25 113h136l-24 -113h-137zM-9 0l109 512h135l-109 -512h-135z" />
    <glyph glyph-name="f_t" horiz-adv-x="654" 
d="M561 425l-56 -265q-3 -16 -3 -25q0 -12 7 -16.5t23 -4.5h68l-25 -114h-122q-45 0 -70 26t-25 71q0 16 5 39l62 289h-160l-91 -425h-138l91 425h-78l18 87h79l9 40q14 65 57.5 101.5t113.5 36.5h95l-22 -105h-54q-21 0 -37 -16t-21 -38l-4 -19h160l38 178h137l-38 -178
h104l-18 -87h-105z" />
    <glyph glyph-name="t_t" horiz-adv-x="647" 
d="M554 425l-56 -265q-4 -22 -4 -25q0 -12 7 -16.5t24 -4.5h67l-24 -114h-123q-44 0 -69 26t-25 71q0 20 4 39l62 289h-163l-56 -265q-3 -16 -3 -25q0 -12 7 -16.5t23 -4.5h68l-25 -114h-122q-45 0 -70 26t-25 71q0 16 5 39l62 289h-67l19 87h66l38 178h137l-38 -178h163
l38 178h136l-37 -178h104l-19 -87h-104z" />
    <glyph glyph-name="zero.dnom" horiz-adv-x="350" 
d="M127 -6q-61 0 -91.5 43t-30.5 110q0 63 23.5 125t70 105.5t102.5 43.5q62 0 92.5 -43.5t30.5 -111.5q0 -99 -56.5 -185.5t-140.5 -86.5zM140 74q40 0 67.5 57.5t27.5 120.5q0 39 -12 63t-36 24q-41 0 -68.5 -57.5t-27.5 -120.5q0 -38 12.5 -62.5t36.5 -24.5z" />
    <glyph glyph-name="one.dnom" horiz-adv-x="225" 
d="M34 0l71 333l-101 -61l16 83l103 59h83l-88 -414h-84z" />
    <glyph glyph-name="two.dnom" horiz-adv-x="336" 
d="M164 141q-26 -12 -39 -18.5t-28 -19t-20 -27.5h195l-17 -76h-281l15 68q5 24 16.5 45t24 34t32.5 26t33.5 19.5t36.5 16.5q25 12 37.5 19t29.5 19t24 27t7 34q0 35 -37 35q-28 0 -50 -23t-30 -61l-79 18q17 67 59.5 104.5t105.5 37.5q55 0 85 -28t30 -76
q0 -68 -38.5 -106.5t-111.5 -67.5z" />
    <glyph glyph-name="three.dnom" horiz-adv-x="321" 
d="M112 -6q-55 0 -89.5 28.5t-34.5 82.5q0 24 3 37l81 -4q-2 -6 -2 -20q0 -21 13.5 -33.5t37.5 -12.5q31 0 53 21t22 49q0 18 -14 29t-37 11h-21l15 71h15q27 0 42 16.5t15 37.5q0 34 -37 34q-51 0 -66 -56l-77 16q14 57 55.5 88t93.5 31q49 0 81 -27t32 -74
q0 -34 -18.5 -60.5t-54.5 -36.5v-3q24 -4 39 -23t15 -51q0 -64 -48 -107.5t-114 -43.5z" />
    <glyph glyph-name="four.dnom" horiz-adv-x="310" 
d="M279 414l-54 -251h46l-15 -73h-46l-19 -90h-83l19 90h-159l14 72l211 252h86zM142 163l33 149l-122 -149h89z" />
    <glyph glyph-name="five.dnom" horiz-adv-x="341" 
d="M316 338h-174l-30 -81q38 27 81 27q46 0 74 -29.5t28 -77.5q0 -74 -52.5 -128.5t-124.5 -54.5q-54 0 -88.5 34.5t-38.5 88.5l82 17q2 -26 15.5 -41.5t33.5 -15.5q36 0 62 29.5t26 63.5q0 21 -13 33t-34 12q-40 0 -69 -38l-77 23l83 214h232z" />
    <glyph glyph-name="six.dnom" horiz-adv-x="333" 
d="M123 -6q-56 0 -88 34t-32 100q0 71 25 137.5t73 110.5t107 44q94 0 115 -87l-65 -29q-12 44 -54 44t-71 -36t-42 -85q37 44 91 44q48 0 77 -27.5t29 -76.5q0 -71 -48.5 -122t-116.5 -51zM128 64q36 0 59 26t23 59q0 23 -13.5 37t-38.5 14q-36 0 -58.5 -25.5t-22.5 -58.5
q0 -23 13 -37.5t38 -14.5z" />
    <glyph glyph-name="seven.dnom" horiz-adv-x="253" 
d="M42 414h246l-19 -90q-80 -66 -119 -143.5t-65 -184.5l-89 8q55 214 192 333h-162z" />
    <glyph glyph-name="eight.dnom" horiz-adv-x="335" 
d="M118 -6q-59 0 -94 27t-35 75q0 46 28.5 81.5t74.5 45.5v3q-18 6 -30 25.5t-12 44.5q0 52 43 88t102 36q51 0 81.5 -26t30.5 -68q0 -36 -21.5 -64.5t-56.5 -38.5v-1q27 -8 42 -31t15 -55q0 -64 -48.5 -103t-119.5 -39zM166 252q27 0 45 20t17 44q0 17 -10.5 27.5
t-28.5 10.5q-27 0 -45.5 -20.5t-17.5 -44.5q1 -16 11.5 -26.5t28.5 -10.5zM128 67q33 0 55 23t21 55q-1 20 -15 32t-37 12q-33 0 -55.5 -22.5t-20.5 -53.5q1 -21 15 -33.5t37 -12.5z" />
    <glyph glyph-name="nine.dnom" horiz-adv-x="332" 
d="M103 -6q-94 0 -115 87l65 29q12 -44 54 -44t71 36t42 85q-37 -44 -91 -44q-48 0 -77 27.5t-29 76.5q0 71 48.5 122t116.5 51q56 0 88 -34t32 -100q0 -111 -59 -201.5t-146 -90.5zM153 214q36 0 58.5 25.5t22.5 58.5q0 23 -13 37.5t-38 14.5q-36 0 -59 -26t-23 -59
q0 -23 13.5 -37t38.5 -14z" />
    <glyph glyph-name="zero.numr" horiz-adv-x="350" 
d="M186 270q-61 0 -91.5 43t-30.5 110q0 63 23.5 125t70 105.5t102.5 43.5q62 0 92.5 -43.5t30.5 -111.5q0 -99 -56.5 -185.5t-140.5 -86.5zM199 350q40 0 67.5 57.5t27.5 120.5q0 39 -12 63t-36 24q-41 0 -68.5 -57.5t-27.5 -120.5q0 -38 12.5 -62.5t36.5 -24.5z" />
    <glyph glyph-name="one.numr" horiz-adv-x="226" 
d="M93 276l71 333l-101 -61l16 83l103 59h83l-88 -414h-84z" />
    <glyph glyph-name="two.numr" horiz-adv-x="336" 
d="M223 417q-27 -12 -40 -18.5t-27.5 -19t-19.5 -27.5h194l-16 -76h-281l14 68q7 30 21 53.5t37 40t39.5 25.5t45.5 22q25 12 38 19t30 19t24 27t7 34q0 35 -37 35q-28 0 -50 -23t-30 -61l-80 18q18 67 60.5 104.5t105.5 37.5q55 0 85 -28t30 -76q0 -67 -38.5 -105.5
t-111.5 -68.5z" />
    <glyph glyph-name="three.numr" horiz-adv-x="321" 
d="M170 270q-54 0 -89 29t-35 82q0 20 4 37l80 -4q-2 -12 -2 -20q0 -21 13.5 -33.5t37.5 -12.5q32 0 53.5 21t21.5 49q0 18 -14 29t-37 11h-21l16 71h14q27 0 42 16.5t15 37.5q0 34 -37 34q-51 0 -66 -56l-76 16q14 57 55 88t93 31q49 0 81.5 -27t32.5 -74q0 -34 -19 -60.5
t-55 -36.5v-3q24 -4 39.5 -23t15.5 -51q0 -64 -48.5 -107.5t-114.5 -43.5z" />
    <glyph glyph-name="four.numr" horiz-adv-x="310" 
d="M338 690l-54 -251h46l-15 -73h-46l-19 -90h-83l19 90h-159l14 72l211 252h86zM201 439l33 149l-122 -149h89z" />
    <glyph glyph-name="five.numr" horiz-adv-x="341" 
d="M375 614h-174l-30 -81q37 27 81 27q46 0 74 -29.5t28 -77.5q0 -74 -52.5 -128.5t-124.5 -54.5q-54 0 -88.5 34.5t-38.5 88.5l82 17q2 -26 15.5 -41.5t33.5 -15.5q36 0 62 29.5t26 63.5q0 21 -13 33t-34 12q-40 0 -69 -38l-77 23l83 214h232z" />
    <glyph glyph-name="six.numr" horiz-adv-x="333" 
d="M181 270q-55 0 -87 34t-32 100q0 111 58.5 201.5t145.5 90.5q93 0 116 -87l-66 -29q-12 44 -54 44q-41 0 -70.5 -36.5t-41.5 -84.5q37 44 91 44q47 0 76.5 -27.5t29.5 -76.5q0 -71 -48.5 -122t-117.5 -51zM187 340q35 0 58.5 26.5t23.5 58.5q0 23 -13.5 37t-38.5 14
q-36 0 -59 -25.5t-23 -58.5q0 -23 13.5 -37.5t38.5 -14.5z" />
    <glyph glyph-name="seven.numr" horiz-adv-x="253" 
d="M100 690h246l-19 -90q-80 -66 -119 -143.5t-65 -184.5l-89 8q55 214 192 333h-162z" />
    <glyph glyph-name="eight.numr" horiz-adv-x="334" 
d="M177 270q-60 0 -95 27t-35 75q0 46 28.5 81.5t75.5 45.5v3q-19 6 -31 25.5t-12 44.5q0 52 43.5 88t101.5 36q51 0 81.5 -26t30.5 -68q0 -36 -21.5 -64.5t-56.5 -38.5v-1q27 -8 42 -31t15 -55q0 -64 -48.5 -103t-118.5 -39zM224 528q27 0 45.5 20t17.5 44q-2 38 -40 38
q-27 0 -45.5 -20.5t-16.5 -44.5q0 -16 10.5 -26.5t28.5 -10.5zM186 343q33 0 55 23t21 55q-1 20 -15 32t-37 12q-33 0 -55 -22.5t-21 -53.5q1 -21 15 -33.5t37 -12.5z" />
    <glyph glyph-name="nine.numr" horiz-adv-x="332" 
d="M162 270q-94 0 -115 87l65 29q12 -44 54 -44t71 36t42 85q-37 -44 -91 -44q-48 0 -77 27.5t-29 76.5q0 71 48.5 122t116.5 51q56 0 88 -34t32 -100q0 -111 -59 -201.5t-146 -90.5zM212 490q36 0 58.5 25.5t22.5 58.5q0 23 -13 37.5t-38 14.5q-36 0 -59 -26t-23 -59
q0 -23 13.5 -37t38.5 -14z" />
    <glyph glyph-name="uni0337.case" horiz-adv-x="0" 
d="M-358 86l32 136l339 205l-30 -132z" />
    <glyph glyph-name="HankenDesign" horiz-adv-x="834" 
d="M436 -30q-157 0 -267.5 110.5t-110.5 267.5t110.5 267.5t267.5 110.5t267.5 -110.5t110.5 -267.5t-110.5 -267.5t-267.5 -110.5zM436 5q142 0 242.5 100.5t100.5 242.5t-100.5 242.5t-242.5 100.5t-242.5 -100.5t-100.5 -242.5t100.5 -242.5t242.5 -100.5zM239 200
q-7 0 -12 5t-5 12v262q0 7 5 12.5t12 5.5t12.5 -5.5t5.5 -12.5v-262q0 -17 -18 -17zM436 200q-17 0 -17 17v262q0 18 17 18t17 -18v-262q0 -17 -17 -17zM632 200q-7 0 -11 5l-132 131q-4 5 -4 12q0 8 4 12l132 131q5 6 11 6q7 0 12.5 -5.5t5.5 -12.5t-5 -12l-119 -119
l119 -119q5 -5 5 -12t-5.5 -12t-12.5 -5zM305 331q-17 0 -17 17t17 17h65q18 0 18 -17t-18 -17h-65z" />
    </font>
</defs>
</svg>
